<svg width="1280" height="770" viewBox="0 0 1280 770" fill="none" xmlns="http://www.w3.org/2000/svg">
<rect x="5" width="1280" height="770" fill="white"/>
<path d="M376.187 516.318C374.525 515.707 373.212 514.92 372.337 513.871L373.125 512.561C374 513.522 375.225 514.221 376.625 514.833C378.112 515.444 379.687 515.706 381.262 515.706C383.625 515.706 385.462 515.27 386.6 514.396C387.825 513.522 388.437 512.298 388.437 510.9C388.437 509.764 388.087 508.89 387.475 508.279C386.862 507.58 386.075 507.143 385.112 506.793C384.15 506.444 382.925 506.094 381.262 505.657C379.425 505.22 377.937 504.783 376.887 504.346C375.75 503.91 374.875 503.298 374.087 502.337C373.3 501.463 372.95 500.239 372.95 498.754C372.95 497.531 373.3 496.482 373.912 495.433C374.525 494.385 375.487 493.598 376.887 493.074C378.2 492.462 379.862 492.2 381.787 492.2C383.187 492.2 384.5 492.375 385.812 492.812C387.125 493.249 388.262 493.773 389.225 494.472L388.525 495.958C387.562 495.258 386.425 494.734 385.2 494.385C383.975 494.035 382.837 493.86 381.7 493.86C379.425 493.86 377.675 494.297 376.45 495.259C375.225 496.22 374.7 497.356 374.7 498.841C374.7 499.977 375.05 500.851 375.662 501.463C376.275 502.162 377.062 502.599 378.025 502.948C378.987 503.298 380.3 503.647 381.875 504.084C383.712 504.521 385.2 504.958 386.25 505.395C387.3 505.832 388.262 506.444 389.05 507.318C389.837 508.191 390.187 509.327 390.187 510.813C390.187 512.036 389.837 513.085 389.225 514.134C388.612 515.095 387.562 515.881 386.25 516.493C384.937 517.105 383.275 517.367 381.262 517.367C379.6 517.279 377.85 517.017 376.187 516.318Z" fill="#584AF8"/>
<path d="M405.15 515.969C404.712 516.406 404.1 516.755 403.487 516.93C402.875 517.105 402.087 517.279 401.387 517.279C399.812 517.279 398.5 516.842 397.625 515.969C396.75 515.095 396.312 513.871 396.312 512.298V500.152H392.9V498.666H396.312V494.647H398.062V498.666H403.925V500.152H398.062V512.124C398.062 513.347 398.325 514.221 398.937 514.92C399.55 515.532 400.337 515.881 401.475 515.881C402.612 515.881 403.575 515.532 404.362 514.833L405.15 515.969Z" fill="#584AF8"/>
<path d="M414.425 499.54C415.65 498.841 417.137 498.492 418.8 498.492V500.239H418.362C416.262 500.239 414.687 500.851 413.55 502.162C412.412 503.473 411.8 505.22 411.8 507.58V517.279H410.05V498.754H411.8V502.774C412.325 501.288 413.287 500.239 414.425 499.54Z" fill="#584AF8"/>
<path d="M426.15 516.056C424.75 515.27 423.612 514.134 422.825 512.735C422.037 511.337 421.6 509.677 421.6 507.929C421.6 506.182 422.037 504.521 422.825 503.123C423.612 501.725 424.75 500.589 426.15 499.802C427.55 499.016 429.125 498.579 430.875 498.579C432.625 498.579 434.2 499.016 435.6 499.802C437 500.589 438.137 501.725 438.925 503.123C439.713 504.521 440.15 506.182 440.15 507.929C440.15 509.677 439.713 511.337 438.925 512.735C438.137 514.134 437 515.27 435.6 516.056C434.2 516.842 432.625 517.279 430.875 517.279C429.125 517.279 427.55 516.842 426.15 516.056ZM434.725 514.658C435.863 513.959 436.738 513.085 437.35 511.862C437.963 510.638 438.312 509.327 438.312 507.842C438.312 506.356 437.963 504.958 437.35 503.822C436.738 502.599 435.775 501.725 434.725 501.026C433.588 500.327 432.362 500.065 430.875 500.065C429.387 500.065 428.162 500.414 427.025 501.026C425.887 501.725 425.012 502.599 424.4 503.822C423.787 505.046 423.437 506.356 423.437 507.842C423.437 509.327 423.787 510.726 424.4 511.862C425.012 513.085 425.975 513.959 427.025 514.658C428.162 515.357 429.387 515.619 430.875 515.619C432.362 515.619 433.588 515.357 434.725 514.658Z" fill="#584AF8"/>
<path d="M460.275 500.414C461.587 501.725 462.287 503.735 462.287 506.269V517.105H460.537V506.444C460.537 504.346 460.012 502.774 458.962 501.725C457.912 500.676 456.425 500.065 454.5 500.065C452.312 500.065 450.562 500.676 449.337 501.987C448.112 503.298 447.412 505.046 447.412 507.23V517.105H445.662V498.579H447.412V502.599C448.025 501.288 448.987 500.239 450.3 499.54C451.525 498.841 453.1 498.404 454.762 498.404C457.037 498.404 458.875 499.103 460.275 500.414Z" fill="#584AF8"/>
<path d="M486.35 498.579V515.095C486.35 518.153 485.562 520.425 484.075 521.911C482.587 523.396 480.313 524.095 477.338 524.095C475.588 524.095 474.013 523.833 472.525 523.309C471.038 522.785 469.813 522.086 468.85 521.124L469.812 519.814C470.775 520.687 471.825 521.299 473.137 521.823C474.45 522.26 475.85 522.522 477.338 522.522C479.788 522.522 481.625 521.911 482.85 520.775C484.075 519.639 484.6 517.804 484.6 515.357V512.211C483.812 513.522 482.762 514.57 481.45 515.357C480.137 516.056 478.563 516.493 476.9 516.493C475.15 516.493 473.575 516.143 472.175 515.357C470.775 514.57 469.638 513.522 468.85 512.124C468.063 510.726 467.625 509.24 467.625 507.492C467.625 505.745 468.063 504.172 468.85 502.861C469.638 501.463 470.775 500.414 472.175 499.628C473.575 498.841 475.15 498.492 476.9 498.492C478.65 498.492 480.137 498.841 481.537 499.628C482.937 500.414 483.987 501.463 484.687 502.861V498.666H486.35V498.579ZM480.925 513.871C482.062 513.26 483.025 512.386 483.637 511.25C484.25 510.114 484.6 508.803 484.6 507.405C484.6 505.919 484.25 504.696 483.637 503.56C483.025 502.424 482.062 501.55 480.925 500.938C479.787 500.327 478.475 499.977 476.987 499.977C475.5 499.977 474.275 500.327 473.05 500.938C471.825 501.55 471.038 502.424 470.338 503.56C469.725 504.696 469.375 505.919 469.375 507.405C469.375 508.89 469.725 510.114 470.338 511.25C470.95 512.386 471.913 513.26 473.05 513.871C474.187 514.483 475.5 514.833 476.987 514.833C478.475 514.833 479.7 514.57 480.925 513.871Z" fill="#584AF8"/>
<path d="M509.537 508.279H493.612C493.7 509.764 494.05 510.988 494.75 512.124C495.45 513.26 496.325 514.134 497.55 514.745C498.687 515.357 500.087 515.706 501.487 515.706C502.712 515.706 503.85 515.532 504.812 515.007C505.862 514.57 506.737 513.959 507.35 513.085L508.4 514.221C507.612 515.182 506.562 515.969 505.337 516.493C504.112 517.017 502.8 517.279 501.4 517.279C499.562 517.279 497.9 516.842 496.5 516.056C495.012 515.27 493.963 514.134 493.088 512.735C492.3 511.337 491.862 509.677 491.862 507.842C491.862 506.007 492.212 504.434 493 503.036C493.787 501.638 494.838 500.502 496.15 499.715C497.463 498.929 499.037 498.492 500.7 498.492C502.362 498.492 503.937 498.929 505.25 499.715C506.562 500.502 507.612 501.638 508.4 503.036C509.187 504.434 509.537 506.094 509.537 507.842V508.279ZM497.2 500.851C496.15 501.463 495.362 502.249 494.662 503.298C493.962 504.346 493.7 505.57 493.612 506.881H507.875C507.787 505.57 507.437 504.346 506.825 503.298C506.212 502.249 505.337 501.463 504.287 500.851C503.237 500.239 502.1 499.977 500.787 499.977C499.475 499.977 498.25 500.327 497.2 500.851Z" fill="#584AF8"/>
<path d="M519.513 499.54C520.738 498.841 522.225 498.492 523.888 498.492V500.239H523.45C521.35 500.239 519.775 500.851 518.638 502.162C517.5 503.473 516.888 505.22 516.888 507.58V517.279H515.138V498.754H516.888V502.774C517.413 501.288 518.288 500.239 519.513 499.54Z" fill="#584AF8"/>
<path d="M547.512 515.969C547.075 516.406 546.462 516.755 545.85 516.93C545.237 517.105 544.45 517.279 543.75 517.279C542.175 517.279 540.862 516.842 539.987 515.969C539.112 515.095 538.675 513.871 538.675 512.298V500.152H535.262V498.666H538.675V494.647H540.425V498.666H546.287V500.152H540.425V512.124C540.425 513.347 540.687 514.221 541.3 514.92C541.912 515.619 542.7 515.881 543.837 515.881C544.975 515.881 545.937 515.532 546.725 514.833L547.512 515.969Z" fill="#584AF8"/>
<path d="M554.25 516.056C552.85 515.27 551.712 514.134 550.925 512.735C550.137 511.337 549.7 509.677 549.7 507.929C549.7 506.182 550.137 504.521 550.925 503.123C551.712 501.725 552.85 500.589 554.25 499.802C555.65 499.016 557.225 498.579 558.975 498.579C560.725 498.579 562.3 499.016 563.7 499.802C565.1 500.589 566.238 501.725 567.025 503.123C567.813 504.521 568.25 506.182 568.25 507.929C568.25 509.677 567.813 511.337 567.025 512.735C566.238 514.134 565.1 515.27 563.7 516.056C562.3 516.842 560.725 517.279 558.975 517.279C557.225 517.279 555.65 516.842 554.25 516.056ZM562.825 514.658C563.962 513.959 564.837 513.085 565.45 511.862C566.062 510.638 566.413 509.327 566.413 507.842C566.413 506.356 566.062 504.958 565.45 503.822C564.837 502.686 563.875 501.725 562.825 501.026C561.687 500.327 560.463 500.065 558.975 500.065C557.487 500.065 556.262 500.414 555.125 501.026C553.987 501.725 553.112 502.599 552.5 503.822C551.887 505.046 551.537 506.356 551.537 507.842C551.537 509.327 551.887 510.726 552.5 511.862C553.112 513.085 554.075 513.959 555.125 514.658C556.262 515.357 557.487 515.619 558.975 515.619C560.463 515.619 561.687 515.357 562.825 514.658Z" fill="#584AF8"/>
<path d="M590.475 498.579V515.095C590.475 518.153 589.687 520.425 588.2 521.911C586.712 523.396 584.437 524.095 581.462 524.095C579.712 524.095 578.137 523.833 576.65 523.309C575.162 522.785 573.937 522.086 572.975 521.124L573.937 519.814C574.9 520.687 575.95 521.299 577.262 521.823C578.575 522.26 579.975 522.522 581.462 522.522C583.912 522.522 585.75 521.911 586.975 520.775C588.2 519.639 588.725 517.804 588.725 515.357V512.211C587.937 513.522 586.887 514.57 585.575 515.357C584.262 516.056 582.687 516.493 581.025 516.493C579.275 516.493 577.7 516.143 576.3 515.357C574.9 514.57 573.762 513.522 572.975 512.124C572.187 510.726 571.75 509.24 571.75 507.492C571.75 505.745 572.187 504.172 572.975 502.861C573.762 501.55 574.9 500.414 576.3 499.628C577.7 498.841 579.275 498.492 581.025 498.492C582.775 498.492 584.262 498.841 585.662 499.628C587.062 500.414 588.112 501.463 588.812 502.861V498.666H590.475V498.579ZM585.05 513.871C586.187 513.26 587.15 512.386 587.762 511.25C588.375 510.114 588.725 508.803 588.725 507.405C588.725 505.919 588.375 504.696 587.762 503.56C587.15 502.424 586.187 501.55 585.05 500.938C583.912 500.327 582.6 499.977 581.112 499.977C579.625 499.977 578.4 500.327 577.175 500.938C576.037 501.55 575.162 502.424 574.462 503.56C573.85 504.696 573.5 505.919 573.5 507.405C573.5 508.89 573.85 510.114 574.462 511.25C575.075 512.386 576.037 513.26 577.175 513.871C578.312 514.483 579.625 514.833 581.112 514.833C582.6 514.833 583.912 514.57 585.05 513.871Z" fill="#584AF8"/>
<path d="M613.75 508.279H597.737C597.825 509.764 598.175 510.988 598.875 512.124C599.575 513.26 600.45 514.134 601.675 514.745C602.812 515.357 604.212 515.706 605.612 515.706C606.837 515.706 607.975 515.532 608.937 515.007C609.987 514.57 610.862 513.959 611.475 513.085L612.525 514.221C611.737 515.182 610.687 515.969 609.462 516.493C608.237 517.017 606.925 517.279 605.525 517.279C603.688 517.279 602.025 516.842 600.537 516.056C599.05 515.27 598 514.134 597.125 512.735C596.337 511.337 595.9 509.677 595.9 507.842C595.9 506.007 596.25 504.434 597.038 503.036C597.825 501.638 598.875 500.502 600.187 499.715C601.5 498.929 603.075 498.492 604.737 498.492C606.4 498.492 607.975 498.929 609.287 499.715C610.6 500.502 611.65 501.638 612.437 503.036C613.225 504.434 613.575 506.094 613.575 507.842L613.75 508.279ZM601.412 500.851C600.363 501.463 599.575 502.249 598.875 503.298C598.262 504.346 597.912 505.57 597.825 506.881H612.087C612 505.57 611.65 504.346 611.037 503.298C610.425 502.249 609.55 501.463 608.5 500.851C607.45 500.239 606.312 499.977 605 499.977C603.6 499.977 602.462 500.327 601.412 500.851Z" fill="#584AF8"/>
<path d="M628.537 515.969C628.1 516.406 627.487 516.755 626.875 516.93C626.262 517.105 625.475 517.279 624.775 517.279C623.2 517.279 621.887 516.842 621.012 515.969C620.137 515.095 619.7 513.871 619.7 512.298V500.152H616.288V498.666H619.7V494.647H621.45V498.666H627.312V500.152H621.45V512.124C621.45 513.347 621.712 514.221 622.325 514.92C622.937 515.619 623.725 515.881 624.862 515.881C626 515.881 626.962 515.532 627.75 514.833L628.537 515.969Z" fill="#584AF8"/>
<path d="M648.05 500.414C649.363 501.725 650.062 503.735 650.062 506.269V517.105H648.312V506.444C648.312 504.346 647.788 502.774 646.737 501.725C645.687 500.676 644.2 500.065 642.275 500.065C640.087 500.065 638.337 500.676 637.112 501.987C635.887 503.298 635.187 505.046 635.187 507.23V517.105H633.437V490.802H635.187V502.511C635.8 501.201 636.762 500.239 638.075 499.54C639.3 498.841 640.787 498.492 642.537 498.492C644.813 498.404 646.65 499.103 648.05 500.414Z" fill="#584AF8"/>
<path d="M673.075 508.279H657.062C657.15 509.764 657.5 510.988 658.2 512.124C658.9 513.26 659.775 514.134 661 514.745C662.137 515.357 663.537 515.706 664.937 515.706C666.162 515.706 667.3 515.532 668.262 515.007C669.312 514.57 670.187 513.959 670.8 513.085L671.85 514.221C671.062 515.182 670.012 515.969 668.787 516.493C667.562 517.017 666.25 517.279 664.85 517.279C663.012 517.279 661.35 516.842 659.95 516.056C658.462 515.27 657.412 514.134 656.537 512.735C655.75 511.337 655.312 509.677 655.312 507.842C655.312 506.007 655.662 504.434 656.45 503.036C657.237 501.638 658.287 500.502 659.6 499.715C660.912 498.929 662.487 498.492 664.15 498.492C665.812 498.492 667.387 498.929 668.7 499.715C670.012 500.502 671.062 501.638 671.85 503.036C672.637 504.434 672.987 506.094 672.987 507.842L673.075 508.279ZM660.737 500.851C659.687 501.463 658.9 502.249 658.2 503.298C657.5 504.346 657.237 505.57 657.15 506.881H671.412C671.325 505.57 670.975 504.346 670.362 503.298C669.75 502.249 668.875 501.463 667.825 500.851C666.775 500.239 665.637 499.977 664.325 499.977C663.012 499.977 661.787 500.327 660.737 500.851Z" fill="#584AF8"/>
<path d="M683.05 499.54C684.275 498.841 685.762 498.492 687.425 498.492V500.239H686.987C684.887 500.239 683.312 500.851 682.175 502.162C681.037 503.473 680.425 505.22 680.425 507.58V517.279H678.675V498.754H680.425V502.774C680.95 501.288 681.825 500.239 683.05 499.54Z" fill="#584AF8"/>
<path d="M460.712 344.782C460.712 344.258 461.15 343.821 461.675 343.821H476.987C485.825 343.821 491.862 348.889 491.862 356.841C491.862 362.521 488.45 366.716 483.9 368.463C488.975 369.862 493.437 373.532 493.437 380.435C493.437 388.474 486.962 394.067 477.6 394.067H461.587C461.062 394.067 460.625 393.63 460.625 393.106V344.782H460.712ZM477.862 391.183C484.862 391.183 489.762 386.727 489.762 380.435C489.762 374.056 484.25 370.211 477.425 370.211H463.95V391.183H477.862ZM477.425 367.153C484.162 367.153 488.187 362.871 488.187 357.016C488.187 350.724 483.9 347.054 476.987 347.054H464.125V367.153H477.425Z" fill="#231F20"/>
<path d="M502.1 344.782C502.1 344.258 502.45 343.821 503.063 343.821H520.913C529.663 343.821 536.925 350.462 536.925 359.201C536.925 366.454 531.85 372.308 525.025 374.231L535.525 392.844C535.875 393.455 535.7 394.154 535 394.154H532.725C532.2 394.154 531.937 393.98 531.675 393.543L521.262 374.668C520.3 374.755 519.512 374.755 518.637 374.755H505.425V393.193C505.425 393.718 504.988 394.154 504.288 394.154H502.975C502.45 394.154 502.013 393.718 502.013 393.193V344.782H502.1ZM520.738 371.784C527.65 371.784 533.512 366.366 533.512 359.288C533.512 352.472 527.65 347.229 520.738 347.229H505.6V371.784H520.738Z" fill="#231F20"/>
<path d="M538.237 393.281L560.375 343.209C560.55 342.947 560.9 342.685 561.25 342.685H561.425C561.775 342.685 562.125 342.772 562.387 343.209L584.35 393.281C584.525 393.718 584.525 394.154 583.737 394.154H581.9C581.375 394.154 581.025 393.805 580.85 393.543L574.987 380.348H547.512L541.737 393.543C541.562 393.805 541.212 394.154 540.687 394.154H538.675C538.237 394.154 537.975 393.892 538.237 393.281ZM573.762 377.464L561.425 348.452H561.25L548.737 377.464H573.762Z" fill="#231F20"/>
<path d="M588.988 344.083C588.988 343.471 589.513 343.122 590.038 343.122H591.262L625.825 388.038C625.912 388.038 625.912 388.038 625.912 388.038V344.782C625.912 344.258 626.35 343.821 626.875 343.821H628.275C628.8 343.821 629.237 344.258 629.237 344.782V393.98C629.237 394.591 628.625 394.941 628.1 394.941H627.137C627.05 394.941 626.525 394.766 592.312 349.588H592.225V393.281C592.225 393.805 591.787 394.242 591.262 394.242H589.863C589.338 394.242 588.9 393.805 588.9 393.281V344.083H588.988Z" fill="#231F20"/>
<path d="M641.05 344.782C641.05 344.258 641.487 343.821 641.925 343.821H657.15C671.15 343.821 682.525 355.094 682.525 368.9C682.525 382.882 671.15 394.154 657.15 394.154H641.925C641.487 394.154 641.05 393.718 641.05 393.193V344.782ZM656.538 391.096C669.138 391.096 678.85 381.571 678.85 368.988C678.85 356.579 669.138 346.967 656.538 346.967H644.375V391.096H656.538Z" fill="#231F20"/>
<path d="M316.775 404.466C316.775 403.767 317.387 403.068 318.175 403.068H348.012C348.8 403.068 349.413 403.679 349.413 404.466V412.33C349.413 413.03 348.8 413.729 348.012 413.729H328.062V424.04H344.512C345.212 424.04 345.913 424.652 345.913 425.438V433.303C345.913 434.002 345.3 434.701 344.512 434.701H328.062V452.178C328.062 452.877 327.45 453.576 326.662 453.576H318.175C317.387 453.576 316.775 452.964 316.775 452.178V404.466Z" fill="#231F20"/>
<path d="M376.012 402.369C390.45 402.369 401.913 413.903 401.913 428.322C401.913 442.74 390.362 454.1 376.012 454.1C361.662 454.1 350.2 442.653 350.2 428.322C350.2 413.991 361.662 402.369 376.012 402.369ZM376.012 442.653C383.975 442.653 390.45 436.186 390.45 428.322C390.45 420.37 383.975 413.903 376.012 413.903C368.137 413.903 361.663 420.457 361.663 428.322C361.663 436.186 368.225 442.653 376.012 442.653Z" fill="#231F20"/>
<path d="M407.162 404.466C407.162 403.767 407.775 403.068 408.562 403.068H430.088C438.75 403.068 445.75 410.058 445.75 418.622C445.75 425.263 441.375 430.594 435.075 433.041L444.963 451.304C445.488 452.265 444.963 453.401 443.738 453.401H434.2C433.587 453.401 433.15 453.052 433.062 452.79L423.525 433.74H418.537V452.09C418.537 452.79 417.925 453.489 417.137 453.489H408.562C407.775 453.489 407.162 452.877 407.162 452.09V404.466ZM429.125 424.564C432.1 424.564 434.637 421.855 434.637 418.797C434.637 415.738 432.1 413.292 429.125 413.292H418.45V424.477H429.125V424.564Z" fill="#231F20"/>
<path d="M456.95 403.505C457.037 402.893 457.65 402.369 458.262 402.369H459.4C459.75 402.369 460.45 402.631 460.625 403.068L477.337 434.089H477.512L494.225 403.068C494.4 402.631 495.1 402.369 495.45 402.369H496.587C497.2 402.369 497.812 402.893 497.9 403.505L506.037 451.828C506.212 452.79 505.512 453.401 504.637 453.401H496.15C495.537 453.401 494.837 452.79 494.75 452.265L491.512 430.07H491.337L479.262 453.401C479.087 453.838 478.387 454.188 478.037 454.188H476.725C476.287 454.188 475.675 453.838 475.5 453.401L463.337 430.07H463.162L460.012 452.265C459.925 452.877 459.4 453.401 458.612 453.401H450.125C449.25 453.401 448.637 452.79 448.725 451.828L456.95 403.505Z" fill="#231F20"/>
<path d="M505.25 451.566L527.825 403.155C528 402.718 528.525 402.369 529.05 402.369H529.75C530.275 402.369 530.8 402.718 530.975 403.155L553.55 451.566C553.988 452.527 553.375 453.401 552.325 453.401H544.363C543.05 453.401 542.525 452.964 541.825 451.566L539.2 445.886H519.6L516.975 451.654C516.625 452.527 515.838 453.401 514.35 453.401H506.475C505.425 453.401 504.813 452.527 505.25 451.566ZM534.825 436.186L529.313 424.302H529.225L523.8 436.186H534.825Z" fill="#231F20"/>
<path d="M555.825 403.679C555.825 402.98 556.437 402.369 557.225 402.369H559.062L587.762 429.982H587.85V404.466C587.85 403.767 588.462 403.068 589.25 403.068H597.913C598.613 403.068 599.312 403.679 599.312 404.466V452.877C599.312 453.576 598.7 454.188 597.913 454.188H596.775C596.6 454.188 595.987 454.013 595.812 453.838L567.287 425.263H567.2V452.09C567.2 452.79 566.587 453.489 565.8 453.489H557.225C556.525 453.489 555.825 452.877 555.825 452.09V403.679Z" fill="#231F20"/>
<path d="M630.463 402.369C637.638 402.369 642.975 404.641 647.875 409.097C648.487 409.709 648.488 410.495 647.963 411.107L642.362 416.962C641.837 417.486 641.05 417.486 640.525 416.962C637.9 414.602 634.312 413.292 630.812 413.292C622.675 413.292 616.725 420.02 616.725 428.06C616.725 436.012 622.763 442.653 630.9 442.653C634.313 442.653 637.988 441.43 640.525 439.245C641.05 438.808 641.925 438.808 642.362 439.332L647.963 445.274C648.488 445.799 648.4 446.673 647.875 447.197C642.975 451.916 636.762 454.188 630.375 454.188C615.937 454.188 604.387 442.74 604.387 428.409C604.387 414.078 616.025 402.369 630.463 402.369Z" fill="#231F20"/>
<path d="M653.125 404.466C653.125 403.767 653.737 403.068 654.525 403.068H684.363C685.15 403.068 685.763 403.679 685.763 404.466V412.33C685.763 413.03 685.15 413.729 684.363 413.729H664.412V422.642H680.863C681.563 422.642 682.263 423.254 682.263 424.04V431.905C682.263 432.691 681.65 433.303 680.863 433.303H664.412V443.002H684.363C685.15 443.002 685.763 443.614 685.763 444.401V452.265C685.763 452.964 685.15 453.663 684.363 453.663H654.525C653.737 453.663 653.125 453.052 653.125 452.265V404.466Z" fill="#231F20"/>
<path d="M780.175 496.919L824.537 483.724V438.808L866.975 424.564C866.975 424.564 861.2 397.912 836.962 405.602C812.637 413.292 782.8 425.351 782.8 425.351L780.175 496.919Z" fill="#231F20"/>
<path d="M785.337 386.29V332.898C785.337 332.898 832.85 309.304 838.45 307.119C843.962 305.022 852.713 303.274 855.688 310.964C858.663 318.654 857.175 335.607 857.175 335.607L826.9 349.85V367.764L785.337 386.29Z" fill="#231F20"/>
<path d="M883.075 265C885.525 266.573 897.95 279.069 897.95 293.225C897.95 308.78 897.95 326.606 871.175 366.191L913.438 381.658C913.438 381.658 934.175 356.492 936.887 333.946C939.6 311.401 928.05 293.4 924.987 291.565L883.075 265Z" fill="#231F20"/>
<path d="M745.962 547.165L794.087 553.981C793.3 554.593 879.05 539.912 891.825 534.756C899.612 531.61 924.113 526.105 943.275 496.569C962.438 467.033 955.35 423.865 953.95 419.496C950.712 408.922 943.537 396.252 928.487 388.911C913.437 381.571 913.438 381.571 913.438 381.571L871.175 366.104C871.175 366.104 892.525 374.143 899.612 378.338C906.7 382.532 914.925 397.126 914.313 427.535C913.875 449.906 906.35 483.898 883.862 504.609C871.175 516.318 856.65 524.008 824.362 530.649C792.075 537.378 745.962 547.165 745.962 547.165Z" fill="#231F20"/>
<path d="M780.175 496.919L824.537 483.724V438.808L866.975 424.564C866.975 424.564 861.2 397.912 836.962 405.602C812.637 413.292 782.8 425.351 782.8 425.351L780.175 496.919Z" fill="url(#paint0_linear)"/>
<path d="M785.337 386.29V332.898C785.337 332.898 832.85 309.304 838.45 307.119C843.962 305.022 852.713 303.274 855.688 310.964C858.663 318.654 857.175 335.607 857.175 335.607L826.9 349.85V367.764L785.337 386.29Z" fill="url(#paint1_linear)"/>
<path d="M883.075 265C885.525 266.573 897.95 279.069 897.95 293.225C897.95 308.78 897.95 326.606 871.175 366.191L913.438 381.658C913.438 381.658 934.175 356.492 936.887 333.946C939.6 311.401 928.05 293.4 924.987 291.565L883.075 265Z" fill="url(#paint2_linear)"/>
<path d="M745.962 547.165L794.087 553.981C793.3 554.593 879.05 539.912 891.825 534.756C899.612 531.61 924.113 526.105 943.275 496.569C962.438 467.033 955.35 423.865 953.95 419.496C950.712 408.922 943.537 396.252 928.487 388.911C913.437 381.571 913.438 381.571 913.438 381.571L871.175 366.104C871.175 366.104 892.525 374.143 899.612 378.338C906.7 382.532 914.925 397.126 914.313 427.535C913.875 449.906 906.35 483.898 883.862 504.609C871.175 516.318 856.65 524.008 824.362 530.649C792.075 537.378 745.962 547.165 745.962 547.165Z" fill="url(#paint3_linear)"/>
<path d="M716.775 478.481H-4V470.441H708.9L716.775 478.481Z" fill="url(#paint4_linear)"/>
<mask id="mask0" mask-type="alpha" maskUnits="userSpaceOnUse" x="721" y="569" width="250" height="201">
<rect width="250" height="201" transform="matrix(1 0 0 -1 721 770)" fill="url(#paint5_linear)"/>
</mask>
<g mask="url(#mask0)">
<path d="M778.175 633.081L822.537 646.276V691.192L864.975 705.436C864.975 705.436 859.2 732.088 834.962 724.398C810.637 716.708 780.8 704.649 780.8 704.649L778.175 633.081Z" fill="#231F20"/>
<path d="M783.337 743.71V797.102C783.337 797.102 830.85 820.696 836.45 822.881C841.962 824.978 850.712 826.726 853.687 819.036C856.662 811.346 855.175 794.393 855.175 794.393L824.9 780.15V762.236L783.337 743.71Z" fill="#231F20"/>
<path d="M881.075 865C883.525 863.427 895.95 850.931 895.95 836.775C895.95 821.22 895.95 803.394 869.175 763.809L911.437 748.342C911.437 748.342 932.175 773.508 934.887 796.054C937.6 818.599 926.05 836.6 922.987 838.435L881.075 865Z" fill="#231F20"/>
<path d="M743.962 582.835L792.087 576.019C791.3 575.407 877.05 590.088 889.825 595.244C897.612 598.39 922.112 603.895 941.275 633.431C960.437 662.967 953.35 706.135 951.95 710.504C948.712 721.078 941.537 733.748 926.487 741.089C911.437 748.429 911.437 748.429 911.437 748.429L869.175 763.896C869.175 763.896 890.525 755.857 897.612 751.662C904.7 747.468 912.925 732.874 912.312 702.465C911.875 680.094 904.35 646.102 881.862 625.391C869.175 613.682 854.65 605.992 822.362 599.351C790.075 592.622 743.962 582.835 743.962 582.835Z" fill="#231F20"/>
<path d="M778.175 633.081L822.537 646.276V691.192L864.975 705.436C864.975 705.436 859.2 732.088 834.962 724.398C810.637 716.708 780.8 704.649 780.8 704.649L778.175 633.081Z" fill="url(#paint6_linear)"/>
<path d="M783.337 743.71V797.102C783.337 797.102 830.85 820.696 836.45 822.881C841.962 824.978 850.712 826.726 853.687 819.036C856.662 811.346 855.175 794.393 855.175 794.393L824.9 780.15V762.236L783.337 743.71Z" fill="url(#paint7_linear)"/>
<path d="M881.075 865C883.525 863.427 895.95 850.931 895.95 836.775C895.95 821.22 895.95 803.394 869.175 763.809L911.437 748.342C911.437 748.342 932.175 773.508 934.887 796.054C937.6 818.599 926.05 836.6 922.987 838.435L881.075 865Z" fill="url(#paint8_linear)"/>
<path d="M743.962 582.835L792.087 576.019C791.3 575.407 877.05 590.088 889.825 595.244C897.612 598.39 922.112 603.895 941.275 633.431C960.437 662.967 953.35 706.135 951.95 710.504C948.712 721.078 941.537 733.748 926.487 741.089C911.437 748.429 911.437 748.429 911.437 748.429L869.175 763.896C869.175 763.896 890.525 755.857 897.612 751.662C904.7 747.468 912.925 732.874 912.312 702.465C911.875 680.094 904.35 646.102 881.862 625.391C869.175 613.682 854.65 605.992 822.362 599.351C790.075 592.622 743.962 582.835 743.962 582.835Z" fill="url(#paint9_linear)"/>
</g>
<defs>
<linearGradient id="paint0_linear" x1="745.941" y1="450.598" x2="956.349" y2="450.598" gradientUnits="userSpaceOnUse">
<stop offset="0.00237682" stop-color="#3171F0"/>
<stop offset="0.5095" stop-color="#9402EE"/>
<stop offset="1" stop-color="#F00381"/>
</linearGradient>
<linearGradient id="paint1_linear" x1="745.941" y1="345.786" x2="956.35" y2="345.786" gradientUnits="userSpaceOnUse">
<stop offset="0.00237682" stop-color="#3171F0"/>
<stop offset="0.5095" stop-color="#9402EE"/>
<stop offset="1" stop-color="#F00381"/>
</linearGradient>
<linearGradient id="paint2_linear" x1="745.941" y1="323.325" x2="956.35" y2="323.325" gradientUnits="userSpaceOnUse">
<stop offset="0.00237682" stop-color="#3171F0"/>
<stop offset="0.5095" stop-color="#9402EE"/>
<stop offset="1" stop-color="#F00381"/>
</linearGradient>
<linearGradient id="paint3_linear" x1="745.945" y1="460.099" x2="956.352" y2="460.099" gradientUnits="userSpaceOnUse">
<stop offset="0.00237682" stop-color="#3171F0"/>
<stop offset="0.5095" stop-color="#9402EE"/>
<stop offset="1" stop-color="#F00381"/>
</linearGradient>
<linearGradient id="paint4_linear" x1="-69.5262" y1="474.457" x2="716.749" y2="474.457" gradientUnits="userSpaceOnUse">
<stop offset="0.00237682" stop-color="#3171F0"/>
<stop offset="0.5095" stop-color="#9402EE"/>
<stop offset="1" stop-color="#F00381"/>
</linearGradient>
<linearGradient id="paint5_linear" x1="125" y1="0" x2="125" y2="201" gradientUnits="userSpaceOnUse">
<stop offset="0.125103" stop-opacity="0"/>
<stop offset="1" stop-opacity="0.07"/>
</linearGradient>
<linearGradient id="paint6_linear" x1="743.941" y1="679.402" x2="954.349" y2="679.402" gradientUnits="userSpaceOnUse">
<stop offset="0.00237682" stop-color="#3171F0"/>
<stop offset="0.5095" stop-color="#9402EE"/>
<stop offset="1" stop-color="#F00381"/>
</linearGradient>
<linearGradient id="paint7_linear" x1="743.941" y1="784.214" x2="954.35" y2="784.214" gradientUnits="userSpaceOnUse">
<stop offset="0.00237682" stop-color="#3171F0"/>
<stop offset="0.5095" stop-color="#9402EE"/>
<stop offset="1" stop-color="#F00381"/>
</linearGradient>
<linearGradient id="paint8_linear" x1="743.941" y1="806.675" x2="954.349" y2="806.675" gradientUnits="userSpaceOnUse">
<stop offset="0.00237682" stop-color="#3171F0"/>
<stop offset="0.5095" stop-color="#9402EE"/>
<stop offset="1" stop-color="#F00381"/>
</linearGradient>
<linearGradient id="paint9_linear" x1="743.945" y1="669.901" x2="954.352" y2="669.901" gradientUnits="userSpaceOnUse">
<stop offset="0.00237682" stop-color="#3171F0"/>
<stop offset="0.5095" stop-color="#9402EE"/>
<stop offset="1" stop-color="#F00381"/>
</linearGradient>
</defs>
</svg>
