<?xml version="1.0" encoding="utf-8"?>
<!-- Generator: Adobe Illustrator 25.3.1, SVG Export Plug-In . SVG Version: 6.00 Build 0)  -->
<svg version="1.1" id="Layer_1" xmlns="http://www.w3.org/2000/svg" xmlns:xlink="http://www.w3.org/1999/xlink" x="0px" y="0px"
	 viewBox="0 0 1280 650" style="enable-background:new 0 0 1280 650;" xml:space="preserve">
<style type="text/css">
	.st0{fill:#231F20;}
	.st1{fill:url(#SVGID_1_);}
	.st2{fill:url(#SVGID_2_);}
	.st3{fill:url(#SVGID_3_);}
	.st4{fill:url(#SVGID_4_);}
	.st5{fill:url(#SVGID_5_);}
	.st6{fill:url(#SVGID_6_);}
	.st7{fill:url(#SVGID_7_);}
	.st8{fill:url(#SVGID_8_);}
	.st9{fill:url(#SVGID_9_);}
	.st10{fill:url(#SVGID_10_);}
	.st11{fill:none;}
	.st12{fill:#584AF8;}
	.st13{font-family:'Montserrat-Light';}
	.st14{font-size:40.6467px;}
	.st15{font-family:'BrandonGrotesque-Light';}
	.st16{font-size:82.2712px;}
	.st17{letter-spacing:-4;}
	.st18{font-family:'BrandonGrotesque-Black';}
	.st19{fill:url(#SVGID_11_);}
	.st20{fill:url(#SVGID_12_);}
	.st21{fill:url(#SVGID_13_);}
	.st22{fill:url(#SVGID_14_);}
	.st23{fill:url(#SVGID_15_);}
</style>
<rect x="543.31" y="398.95" class="st11" width="354.56" height="34.49"/>
<text transform="matrix(1 0 0 1 543.3088 429.1123)" class="st12 st13 st14">Stronger together</text>
<rect x="469.08" y="230.83" class="st11" width="431.41" height="141.64"/>
<text transform="matrix(1 0 0 1 637.6428 288.4214)"><tspan x="0" y="0" class="st0 st15 st16 st17">BRAND</tspan><tspan x="-162.81" y="67.82" class="st0 st18 st16 st17">FORMANCE</tspan></text>
<g>
	<g>
		<path class="st0" d="M995.54,406.03l50.66-15.1v-51.39l48.47-16.32c0,0-6.58-30.45-34.34-21.68
			c-27.77,8.77-61.87,22.65-61.87,22.65L995.54,406.03z"/>
		<path class="st0" d="M1001.38,279.38v-61.13c0,0,54.31-27.04,60.65-29.47c6.33-2.44,16.32-4.38,19.73,4.38
			c3.41,8.77,1.7,28.25,1.7,28.25l-34.59,16.32v20.46L1001.38,279.38z"/>
		<path class="st0" d="M1113.1,140.64c2.84,1.83,17.04,16.13,17.04,32.26c0,17.75,0,38.22-30.64,83.48l48.29,17.67
			c0,0,23.74-28.81,26.78-54.58c3.04-25.77-10.12-46.42-13.59-48.49L1113.1,140.64z"/>
		<path class="st0" d="M956.38,463.52l55.04,7.81c-0.92,0.68,97.12-16.11,111.68-22.02c8.94-3.63,36.93-9.94,58.77-43.68
			s13.81-83.22,12.25-88.24c-3.73-12.06-11.92-26.58-29.12-34.96s-17.2-8.38-17.2-8.38l-48.29-17.67c0,0,24.43,9.17,32.53,13.96
			s17.48,21.54,16.81,56.28c-0.5,25.61-9.07,64.55-34.8,88.24c-14.54,13.38-31.07,22.19-68,29.83
			C1009.11,452.34,956.38,463.52,956.38,463.52z"/>
	</g>
	<g>
		<linearGradient id="SVGID_1_" gradientUnits="userSpaceOnUse" x1="956.375" y1="305.9984" x2="1196.8424" y2="305.9984">
			<stop  offset="2.376819e-03" style="stop-color:#3171F0"/>
			<stop  offset="0.5095" style="stop-color:#9402EE"/>
			<stop  offset="1" style="stop-color:#F00381"/>
		</linearGradient>
		<path class="st1" d="M995.54,406.03l50.66-15.1v-51.39l48.47-16.32c0,0-6.58-30.45-34.34-21.68
			c-27.77,8.77-61.87,22.65-61.87,22.65L995.54,406.03z"/>
		<linearGradient id="SVGID_2_" gradientUnits="userSpaceOnUse" x1="956.375" y1="305.9984" x2="1196.8424" y2="305.9984">
			<stop  offset="2.376819e-03" style="stop-color:#3171F0"/>
			<stop  offset="0.5095" style="stop-color:#9402EE"/>
			<stop  offset="1" style="stop-color:#F00381"/>
		</linearGradient>
		<path class="st2" d="M1001.38,279.38v-61.13c0,0,54.31-27.04,60.65-29.47c6.33-2.44,16.32-4.38,19.73,4.38
			c3.41,8.77,1.7,28.25,1.7,28.25l-34.59,16.32v20.46L1001.38,279.38z"/>
		<linearGradient id="SVGID_3_" gradientUnits="userSpaceOnUse" x1="956.375" y1="305.9984" x2="1196.8424" y2="305.9984">
			<stop  offset="2.376819e-03" style="stop-color:#3171F0"/>
			<stop  offset="0.5095" style="stop-color:#9402EE"/>
			<stop  offset="1" style="stop-color:#F00381"/>
		</linearGradient>
		<path class="st3" d="M1113.1,140.64c2.84,1.83,17.04,16.13,17.04,32.26c0,17.75,0,38.22-30.64,83.48l48.29,17.67
			c0,0,23.74-28.81,26.78-54.58c3.04-25.77-10.12-46.42-13.59-48.49L1113.1,140.64z"/>
		<linearGradient id="SVGID_4_" gradientUnits="userSpaceOnUse" x1="956.375" y1="305.9984" x2="1196.8424" y2="305.9984">
			<stop  offset="2.376819e-03" style="stop-color:#3171F0"/>
			<stop  offset="0.5095" style="stop-color:#9402EE"/>
			<stop  offset="1" style="stop-color:#F00381"/>
		</linearGradient>
		<path class="st4" d="M956.38,463.52l55.04,7.81c-0.92,0.68,97.12-16.11,111.68-22.02c8.94-3.63,36.93-9.94,58.77-43.68
			s13.81-83.22,12.25-88.24c-3.73-12.06-11.92-26.58-29.12-34.96s-17.2-8.38-17.2-8.38l-48.29-17.67c0,0,24.43,9.17,32.53,13.96
			s17.48,21.54,16.81,56.28c-0.5,25.61-9.07,64.55-34.8,88.24c-14.54,13.38-31.07,22.19-68,29.83
			C1009.11,452.34,956.38,463.52,956.38,463.52z"/>
	</g>
</g>
<linearGradient id="SVGID_5_" gradientUnits="userSpaceOnUse" x1="-0.7288" y1="380.297" x2="897.8676" y2="380.297">
	<stop  offset="2.376819e-03" style="stop-color:#3171F0"/>
	<stop  offset="0.5095" style="stop-color:#9402EE"/>
	<stop  offset="1" style="stop-color:#F00381"/>
</linearGradient>
<polygon class="st5" points="897.87,384.86 -0.73,384.86 -0.73,375.73 888.86,375.73 "/>
</svg>
