<svg width="641" height="289" viewBox="0 0 641 289" fill="none" xmlns="http://www.w3.org/2000/svg">
	<path d="M60.1874 251.318C58.5249 250.707 57.2124 249.92 56.3374 248.871L57.1249 247.561C57.9999 248.522 59.2249 249.221 60.6249 249.833C62.1124 250.444 63.6874 250.706 65.2624 250.706C67.6249 250.706 69.4624 250.27 70.5999 249.396C71.8249 248.522 72.4374 247.298 72.4374 245.9C72.4374 244.764 72.0874 243.89 71.4749 243.279C70.8624 242.58 70.0749 242.143 69.1124 241.793C68.1499 241.444 66.9249 241.094 65.2624 240.657C63.4249 240.22 61.9374 239.783 60.8874 239.346C59.7499 238.91 58.8749 238.298 58.0874 237.337C57.2999 236.463 56.9499 235.239 56.9499 233.754C56.9499 232.531 57.2999 231.482 57.9124 230.433C58.5249 229.385 59.4874 228.598 60.8874 228.074C62.1999 227.462 63.8624 227.2 65.7874 227.2C67.1874 227.2 68.4999 227.375 69.8124 227.812C71.1249 228.249 72.2624 228.773 73.2249 229.472L72.5249 230.958C71.5624 230.258 70.4249 229.734 69.1999 229.385C67.9749 229.035 66.8374 228.86 65.6999 228.86C63.4249 228.86 61.6749 229.297 60.4499 230.259C59.2249 231.22 58.6999 232.356 58.6999 233.841C58.6999 234.977 59.0499 235.851 59.6624 236.463C60.2749 237.162 61.0624 237.599 62.0249 237.948C62.9874 238.298 64.2999 238.647 65.8749 239.084C67.7124 239.521 69.1999 239.958 70.2499 240.395C71.2999 240.832 72.2624 241.444 73.0499 242.318C73.8374 243.191 74.1874 244.327 74.1874 245.813C74.1874 247.036 73.8374 248.085 73.2249 249.134C72.6124 250.095 71.5624 250.881 70.2499 251.493C68.9374 252.105 67.2749 252.367 65.2624 252.367C63.5999 252.279 61.8499 252.017 60.1874 251.318Z" fill="#584AF8"/>
	<path d="M89.1499 250.969C88.7124 251.406 88.0999 251.755 87.4874 251.93C86.8749 252.105 86.0873 252.279 85.3873 252.279C83.8123 252.279 82.4999 251.842 81.6249 250.969C80.7499 250.095 80.3124 248.871 80.3124 247.298V235.152H76.8999V233.666H80.3124V229.647H82.0624V233.666H87.9249V235.152H82.0624V247.124C82.0624 248.347 82.3249 249.221 82.9374 249.92C83.5499 250.532 84.3374 250.881 85.4749 250.881C86.6124 250.881 87.5749 250.532 88.3624 249.833L89.1499 250.969Z" fill="#584AF8"/>
	<path d="M98.4248 234.54C99.6498 233.841 101.137 233.492 102.8 233.492V235.239H102.362C100.262 235.239 98.6873 235.851 97.5498 237.162C96.4123 238.473 95.7998 240.22 95.7998 242.58V252.279H94.0498V233.754H95.7998V237.774C96.3248 236.288 97.2873 235.239 98.4248 234.54Z" fill="#584AF8"/>
	<path d="M110.15 251.056C108.75 250.27 107.612 249.134 106.825 247.735C106.037 246.337 105.6 244.677 105.6 242.929C105.6 241.182 106.037 239.521 106.825 238.123C107.612 236.725 108.75 235.589 110.15 234.802C111.55 234.016 113.125 233.579 114.875 233.579C116.625 233.579 118.2 234.016 119.6 234.802C121 235.589 122.137 236.725 122.925 238.123C123.712 239.521 124.15 241.182 124.15 242.929C124.15 244.677 123.712 246.337 122.925 247.735C122.137 249.134 121 250.27 119.6 251.056C118.2 251.842 116.625 252.279 114.875 252.279C113.125 252.279 111.55 251.842 110.15 251.056ZM118.725 249.658C119.862 248.959 120.737 248.085 121.35 246.862C121.962 245.638 122.312 244.327 122.312 242.842C122.312 241.356 121.962 239.958 121.35 238.822C120.737 237.599 119.775 236.725 118.725 236.026C117.587 235.327 116.362 235.065 114.875 235.065C113.387 235.065 112.162 235.414 111.025 236.026C109.887 236.725 109.012 237.599 108.4 238.822C107.787 240.046 107.437 241.356 107.437 242.842C107.437 244.327 107.787 245.726 108.4 246.862C109.012 248.085 109.975 248.959 111.025 249.658C112.162 250.357 113.387 250.619 114.875 250.619C116.362 250.619 117.587 250.357 118.725 249.658Z" fill="#584AF8"/>
	<path d="M144.275 235.414C145.587 236.725 146.287 238.735 146.287 241.269V252.105H144.537V241.444C144.537 239.346 144.012 237.774 142.962 236.725C141.912 235.676 140.425 235.065 138.5 235.065C136.312 235.065 134.562 235.676 133.337 236.987C132.112 238.298 131.412 240.046 131.412 242.23V252.105H129.662V233.579H131.412V237.599C132.025 236.288 132.987 235.239 134.3 234.54C135.525 233.841 137.1 233.404 138.762 233.404C141.037 233.404 142.875 234.103 144.275 235.414Z" fill="#584AF8"/>
	<path d="M170.35 233.579V250.095C170.35 253.153 169.562 255.425 168.075 256.911C166.587 258.396 164.313 259.095 161.338 259.095C159.588 259.095 158.013 258.833 156.525 258.309C155.038 257.785 153.813 257.086 152.85 256.124L153.812 254.814C154.775 255.687 155.825 256.299 157.137 256.823C158.45 257.26 159.85 257.522 161.338 257.522C163.788 257.522 165.625 256.911 166.85 255.775C168.075 254.639 168.6 252.804 168.6 250.357V247.211C167.812 248.522 166.762 249.57 165.45 250.357C164.137 251.056 162.563 251.493 160.9 251.493C159.15 251.493 157.575 251.143 156.175 250.357C154.775 249.57 153.638 248.522 152.85 247.124C152.063 245.726 151.625 244.24 151.625 242.492C151.625 240.745 152.063 239.172 152.85 237.861C153.638 236.463 154.775 235.414 156.175 234.628C157.575 233.841 159.15 233.492 160.9 233.492C162.65 233.492 164.137 233.841 165.537 234.628C166.937 235.414 167.987 236.463 168.687 237.861V233.666H170.35V233.579ZM164.925 248.871C166.062 248.26 167.025 247.386 167.637 246.25C168.25 245.114 168.6 243.803 168.6 242.405C168.6 240.919 168.25 239.696 167.637 238.56C167.025 237.424 166.062 236.55 164.925 235.938C163.787 235.327 162.475 234.977 160.987 234.977C159.5 234.977 158.275 235.327 157.05 235.938C155.825 236.55 155.038 237.424 154.338 238.56C153.725 239.696 153.375 240.919 153.375 242.405C153.375 243.89 153.725 245.114 154.338 246.25C154.95 247.386 155.913 248.26 157.05 248.871C158.187 249.483 159.5 249.833 160.987 249.833C162.475 249.833 163.7 249.57 164.925 248.871Z" fill="#584AF8"/>
	<path d="M193.537 243.279H177.612C177.7 244.764 178.05 245.988 178.75 247.124C179.45 248.26 180.325 249.134 181.55 249.745C182.687 250.357 184.087 250.706 185.487 250.706C186.712 250.706 187.85 250.532 188.812 250.007C189.862 249.57 190.737 248.959 191.35 248.085L192.4 249.221C191.612 250.182 190.562 250.969 189.337 251.493C188.112 252.017 186.8 252.279 185.4 252.279C183.562 252.279 181.9 251.842 180.5 251.056C179.012 250.27 177.962 249.134 177.087 247.735C176.3 246.337 175.862 244.677 175.862 242.842C175.862 241.007 176.212 239.434 177 238.036C177.787 236.638 178.837 235.502 180.15 234.715C181.462 233.929 183.037 233.492 184.7 233.492C186.362 233.492 187.937 233.929 189.25 234.715C190.562 235.502 191.612 236.638 192.4 238.036C193.187 239.434 193.537 241.094 193.537 242.842V243.279ZM181.2 235.851C180.15 236.463 179.362 237.249 178.662 238.298C177.962 239.346 177.7 240.57 177.612 241.881H191.875C191.787 240.57 191.437 239.346 190.825 238.298C190.212 237.249 189.337 236.463 188.287 235.851C187.237 235.239 186.1 234.977 184.787 234.977C183.475 234.977 182.25 235.327 181.2 235.851Z" fill="#584AF8"/>
	<path d="M203.512 234.54C204.737 233.841 206.225 233.492 207.887 233.492V235.239H207.45C205.35 235.239 203.775 235.851 202.637 237.162C201.5 238.473 200.887 240.22 200.887 242.58V252.279H199.137V233.754H200.887V237.774C201.412 236.288 202.287 235.239 203.512 234.54Z" fill="#584AF8"/>
	<path d="M231.512 250.969C231.075 251.406 230.462 251.755 229.85 251.93C229.237 252.105 228.45 252.279 227.75 252.279C226.175 252.279 224.862 251.842 223.987 250.969C223.112 250.095 222.675 248.871 222.675 247.298V235.152H219.262V233.666H222.675V229.647H224.425V233.666H230.287V235.152H224.425V247.124C224.425 248.347 224.687 249.221 225.3 249.92C225.912 250.619 226.7 250.881 227.837 250.881C228.975 250.881 229.937 250.532 230.725 249.833L231.512 250.969Z" fill="#584AF8"/>
	<path d="M238.25 251.056C236.85 250.27 235.712 249.134 234.925 247.735C234.137 246.337 233.7 244.677 233.7 242.929C233.7 241.182 234.137 239.521 234.925 238.123C235.712 236.725 236.85 235.589 238.25 234.802C239.65 234.016 241.225 233.579 242.975 233.579C244.725 233.579 246.3 234.016 247.7 234.802C249.1 235.589 250.238 236.725 251.025 238.123C251.813 239.521 252.25 241.182 252.25 242.929C252.25 244.677 251.813 246.337 251.025 247.735C250.238 249.134 249.1 250.27 247.7 251.056C246.3 251.842 244.725 252.279 242.975 252.279C241.225 252.279 239.65 251.842 238.25 251.056ZM246.825 249.658C247.962 248.959 248.837 248.085 249.45 246.862C250.062 245.638 250.413 244.327 250.413 242.842C250.413 241.356 250.062 239.958 249.45 238.822C248.837 237.686 247.875 236.725 246.825 236.026C245.687 235.327 244.463 235.065 242.975 235.065C241.487 235.065 240.262 235.414 239.125 236.026C237.987 236.725 237.112 237.599 236.5 238.822C235.887 240.046 235.537 241.356 235.537 242.842C235.537 244.327 235.887 245.726 236.5 246.862C237.112 248.085 238.075 248.959 239.125 249.658C240.262 250.357 241.487 250.619 242.975 250.619C244.463 250.619 245.687 250.357 246.825 249.658Z" fill="#584AF8"/>
	<path d="M274.475 233.579V250.095C274.475 253.153 273.687 255.425 272.2 256.911C270.712 258.396 268.437 259.095 265.462 259.095C263.712 259.095 262.137 258.833 260.65 258.309C259.162 257.785 257.937 257.086 256.975 256.124L257.937 254.814C258.9 255.687 259.95 256.299 261.262 256.823C262.575 257.26 263.975 257.522 265.462 257.522C267.912 257.522 269.75 256.911 270.975 255.775C272.2 254.639 272.725 252.804 272.725 250.357V247.211C271.937 248.522 270.887 249.57 269.575 250.357C268.262 251.056 266.687 251.493 265.025 251.493C263.275 251.493 261.7 251.143 260.3 250.357C258.9 249.57 257.762 248.522 256.975 247.124C256.187 245.726 255.75 244.24 255.75 242.492C255.75 240.745 256.187 239.172 256.975 237.861C257.762 236.55 258.9 235.414 260.3 234.628C261.7 233.841 263.275 233.492 265.025 233.492C266.775 233.492 268.262 233.841 269.662 234.628C271.062 235.414 272.112 236.463 272.812 237.861V233.666H274.475V233.579ZM269.05 248.871C270.187 248.26 271.15 247.386 271.762 246.25C272.375 245.114 272.725 243.803 272.725 242.405C272.725 240.919 272.375 239.696 271.762 238.56C271.15 237.424 270.187 236.55 269.05 235.938C267.912 235.327 266.6 234.977 265.112 234.977C263.625 234.977 262.4 235.327 261.175 235.938C260.037 236.55 259.162 237.424 258.462 238.56C257.85 239.696 257.5 240.919 257.5 242.405C257.5 243.89 257.85 245.114 258.462 246.25C259.075 247.386 260.037 248.26 261.175 248.871C262.312 249.483 263.625 249.833 265.112 249.833C266.6 249.833 267.912 249.57 269.05 248.871Z" fill="#584AF8"/>
	<path d="M297.75 243.279H281.737C281.825 244.764 282.175 245.988 282.875 247.124C283.575 248.26 284.45 249.134 285.675 249.745C286.812 250.357 288.212 250.706 289.612 250.706C290.837 250.706 291.975 250.532 292.937 250.007C293.987 249.57 294.862 248.959 295.475 248.085L296.525 249.221C295.737 250.182 294.687 250.969 293.462 251.493C292.237 252.017 290.925 252.279 289.525 252.279C287.687 252.279 286.025 251.842 284.537 251.056C283.05 250.27 282 249.134 281.125 247.735C280.337 246.337 279.9 244.677 279.9 242.842C279.9 241.007 280.25 239.434 281.037 238.036C281.825 236.638 282.875 235.502 284.187 234.715C285.5 233.929 287.075 233.492 288.737 233.492C290.4 233.492 291.975 233.929 293.287 234.715C294.6 235.502 295.65 236.638 296.437 238.036C297.225 239.434 297.575 241.094 297.575 242.842L297.75 243.279ZM285.412 235.851C284.362 236.463 283.575 237.249 282.875 238.298C282.262 239.346 281.912 240.57 281.825 241.881H296.087C296 240.57 295.65 239.346 295.037 238.298C294.425 237.249 293.55 236.463 292.5 235.851C291.45 235.239 290.312 234.977 289 234.977C287.6 234.977 286.462 235.327 285.412 235.851Z" fill="#584AF8"/>
	<path d="M312.537 250.969C312.1 251.406 311.487 251.755 310.875 251.93C310.262 252.105 309.475 252.279 308.775 252.279C307.2 252.279 305.887 251.842 305.012 250.969C304.137 250.095 303.7 248.871 303.7 247.298V235.152H300.287V233.666H303.7V229.647H305.45V233.666H311.312V235.152H305.45V247.124C305.45 248.347 305.712 249.221 306.325 249.92C306.937 250.619 307.725 250.881 308.862 250.881C310 250.881 310.962 250.532 311.75 249.833L312.537 250.969Z" fill="#584AF8"/>
	<path d="M332.05 235.414C333.362 236.725 334.062 238.735 334.062 241.269V252.105H332.312V241.444C332.312 239.346 331.787 237.774 330.737 236.725C329.687 235.676 328.2 235.065 326.275 235.065C324.087 235.065 322.337 235.676 321.112 236.987C319.887 238.298 319.187 240.046 319.187 242.23V252.105H317.437V225.802H319.187V237.511C319.8 236.201 320.762 235.239 322.075 234.54C323.3 233.841 324.787 233.492 326.537 233.492C328.812 233.404 330.65 234.103 332.05 235.414Z" fill="#584AF8"/>
	<path d="M357.075 243.279H341.062C341.15 244.764 341.5 245.988 342.2 247.124C342.9 248.26 343.775 249.134 345 249.745C346.137 250.357 347.537 250.706 348.937 250.706C350.162 250.706 351.3 250.532 352.262 250.007C353.312 249.57 354.187 248.959 354.8 248.085L355.85 249.221C355.062 250.182 354.012 250.969 352.787 251.493C351.562 252.017 350.25 252.279 348.85 252.279C347.012 252.279 345.35 251.842 343.95 251.056C342.462 250.27 341.412 249.134 340.537 247.735C339.75 246.337 339.312 244.677 339.312 242.842C339.312 241.007 339.662 239.434 340.45 238.036C341.237 236.638 342.287 235.502 343.6 234.715C344.912 233.929 346.487 233.492 348.15 233.492C349.812 233.492 351.387 233.929 352.7 234.715C354.012 235.502 355.062 236.638 355.85 238.036C356.637 239.434 356.987 241.094 356.987 242.842L357.075 243.279ZM344.737 235.851C343.687 236.463 342.9 237.249 342.2 238.298C341.5 239.346 341.237 240.57 341.15 241.881H355.412C355.325 240.57 354.975 239.346 354.362 238.298C353.75 237.249 352.875 236.463 351.825 235.851C350.775 235.239 349.637 234.977 348.325 234.977C347.012 234.977 345.787 235.327 344.737 235.851Z" fill="#584AF8"/>
	<path d="M367.05 234.54C368.275 233.841 369.762 233.492 371.425 233.492V235.239H370.987C368.887 235.239 367.312 235.851 366.175 237.162C365.037 238.473 364.425 240.22 364.425 242.58V252.279H362.675V233.754H364.425V237.774C364.95 236.288 365.825 235.239 367.05 234.54Z" fill="#584AF8"/>
	<path d="M144.713 79.7822C144.713 79.2579 145.15 78.8209 145.675 78.8209H160.988C169.825 78.8209 175.863 83.8892 175.863 91.8412C175.863 97.5212 172.45 101.716 167.9 103.463C172.975 104.862 177.438 108.532 177.438 115.435C177.438 123.474 170.963 129.067 161.6 129.067H145.588C145.063 129.067 144.625 128.63 144.625 128.106V79.7822H144.713ZM161.863 126.183C168.863 126.183 173.762 121.727 173.762 115.435C173.762 109.056 168.25 105.211 161.425 105.211H147.95V126.183H161.863ZM161.425 102.153C168.163 102.153 172.188 97.8708 172.188 92.016C172.188 85.7243 167.9 82.0542 160.988 82.0542H148.125V102.153H161.425Z" fill="#231F20"/>
	<path d="M186.1 79.7822C186.1 79.2579 186.45 78.8209 187.063 78.8209H204.913C213.663 78.8209 220.925 85.4622 220.925 94.2006C220.925 101.454 215.85 107.308 209.025 109.231L219.525 127.844C219.875 128.455 219.7 129.154 219 129.154H216.725C216.2 129.154 215.938 128.98 215.675 128.543L205.263 109.668C204.3 109.755 203.513 109.755 202.638 109.755H189.425V128.193C189.425 128.718 188.988 129.154 188.288 129.154H186.975C186.45 129.154 186.013 128.718 186.013 128.193V79.7822H186.1ZM204.738 106.784C211.65 106.784 217.513 101.366 217.513 94.288C217.513 87.472 211.65 82.2289 204.738 82.2289H189.6V106.784H204.738Z" fill="#231F20"/>
	<path d="M222.238 128.281L244.375 78.2092C244.55 77.9471 244.9 77.6849 245.25 77.6849H245.425C245.775 77.6849 246.125 77.7723 246.388 78.2092L268.35 128.281C268.525 128.718 268.525 129.154 267.738 129.154H265.9C265.375 129.154 265.025 128.805 264.85 128.543L258.988 115.348H231.513L225.738 128.543C225.563 128.805 225.213 129.154 224.688 129.154H222.675C222.238 129.154 221.975 128.892 222.238 128.281ZM257.763 112.464L245.425 83.4523H245.25L232.738 112.464H257.763Z" fill="#231F20"/>
	<path d="M272.988 79.0831C272.988 78.4714 273.513 78.1219 274.038 78.1219H275.263L309.825 123.038C309.913 123.038 309.913 123.038 309.913 123.038V79.7822C309.913 79.2579 310.35 78.8209 310.875 78.8209H312.275C312.8 78.8209 313.238 79.2579 313.238 79.7822V128.98C313.238 129.591 312.625 129.941 312.1 129.941H311.138C311.05 129.941 310.525 129.766 276.313 84.5883H276.225V128.281C276.225 128.805 275.788 129.242 275.263 129.242H273.863C273.338 129.242 272.9 128.805 272.9 128.281V79.0831H272.988Z" fill="#231F20"/>
	<path d="M325.05 79.7822C325.05 79.2579 325.488 78.8209 325.925 78.8209H341.15C355.15 78.8209 366.525 90.0935 366.525 103.9C366.525 117.882 355.15 129.154 341.15 129.154H325.925C325.488 129.154 325.05 128.718 325.05 128.193V79.7822ZM340.538 126.096C353.138 126.096 362.85 116.571 362.85 103.988C362.85 91.5791 353.138 81.9668 340.538 81.9668H328.375V126.096H340.538Z" fill="#231F20"/>
	<path d="M0.774902 139.466C0.774902 138.767 1.38741 138.068 2.17491 138.068H32.0124C32.7999 138.068 33.4124 138.679 33.4124 139.466V147.33C33.4124 148.03 32.7999 148.729 32.0124 148.729H12.0624V159.04H28.5124C29.2124 159.04 29.9124 159.652 29.9124 160.438V168.303C29.9124 169.002 29.2999 169.701 28.5124 169.701H12.0624V187.178C12.0624 187.877 11.4499 188.576 10.6624 188.576H2.17491C1.38741 188.576 0.774902 187.964 0.774902 187.178V139.466Z" fill="#231F20"/>
	<path d="M60.0124 137.369C74.4499 137.369 85.9125 148.903 85.9125 163.322C85.9125 177.74 74.3624 189.1 60.0124 189.1C45.6624 189.1 34.2 177.653 34.2 163.322C34.2 148.991 45.6624 137.369 60.0124 137.369ZM60.0124 177.653C67.9749 177.653 74.4499 171.186 74.4499 163.322C74.4499 155.37 67.9749 148.903 60.0124 148.903C52.1374 148.903 45.6625 155.457 45.6625 163.322C45.6625 171.186 52.2249 177.653 60.0124 177.653Z" fill="#231F20"/>
	<path d="M91.1624 139.466C91.1624 138.767 91.7748 138.068 92.5623 138.068H114.087C122.75 138.068 129.75 145.058 129.75 153.622C129.75 160.263 125.375 165.594 119.075 168.041L128.962 186.304C129.487 187.265 128.962 188.401 127.737 188.401H118.2C117.587 188.401 117.15 188.052 117.062 187.79L107.525 168.74H102.537V187.09C102.537 187.79 101.925 188.489 101.137 188.489H92.5623C91.7748 188.489 91.1624 187.877 91.1624 187.09V139.466ZM113.125 159.564C116.1 159.564 118.637 156.855 118.637 153.797C118.637 150.738 116.1 148.292 113.125 148.292H102.45V159.477H113.125V159.564Z" fill="#231F20"/>
	<path d="M140.95 138.505C141.037 137.893 141.65 137.369 142.262 137.369H143.4C143.75 137.369 144.45 137.631 144.625 138.068L161.337 169.089H161.512L178.225 138.068C178.4 137.631 179.1 137.369 179.45 137.369H180.587C181.2 137.369 181.812 137.893 181.9 138.505L190.037 186.828C190.212 187.79 189.512 188.401 188.637 188.401H180.15C179.537 188.401 178.837 187.79 178.75 187.265L175.512 165.07H175.337L163.262 188.401C163.087 188.838 162.387 189.188 162.037 189.188H160.725C160.287 189.188 159.675 188.838 159.5 188.401L147.337 165.07H147.162L144.012 187.265C143.925 187.877 143.4 188.401 142.612 188.401H134.125C133.25 188.401 132.637 187.79 132.725 186.828L140.95 138.505Z" fill="#231F20"/>
	<path d="M189.25 186.566L211.825 138.155C212 137.718 212.525 137.369 213.05 137.369H213.75C214.275 137.369 214.8 137.718 214.975 138.155L237.55 186.566C237.988 187.527 237.375 188.401 236.325 188.401H228.363C227.05 188.401 226.525 187.964 225.825 186.566L223.2 180.886H203.6L200.975 186.654C200.625 187.527 199.838 188.401 198.35 188.401H190.475C189.425 188.401 188.813 187.527 189.25 186.566ZM218.825 171.186L213.313 159.302H213.225L207.8 171.186H218.825Z" fill="#231F20"/>
	<path d="M239.825 138.679C239.825 137.98 240.437 137.369 241.225 137.369H243.062L271.762 164.982H271.85V139.466C271.85 138.767 272.462 138.068 273.25 138.068H281.913C282.613 138.068 283.312 138.679 283.312 139.466V187.877C283.312 188.576 282.7 189.188 281.913 189.188H280.775C280.6 189.188 279.987 189.013 279.812 188.838L251.287 160.263H251.2V187.09C251.2 187.79 250.587 188.489 249.8 188.489H241.225C240.525 188.489 239.825 187.877 239.825 187.09V138.679Z" fill="#231F20"/>
	<path d="M314.463 137.369C321.638 137.369 326.975 139.641 331.875 144.097C332.487 144.709 332.488 145.495 331.963 146.107L326.362 151.962C325.837 152.486 325.05 152.486 324.525 151.962C321.9 149.602 318.312 148.292 314.812 148.292C306.675 148.292 300.725 155.02 300.725 163.06C300.725 171.012 306.763 177.653 314.9 177.653C318.313 177.653 321.988 176.43 324.525 174.245C325.05 173.808 325.925 173.808 326.362 174.332L331.963 180.274C332.488 180.799 332.4 181.673 331.875 182.197C326.975 186.916 320.762 189.188 314.375 189.188C299.937 189.188 288.387 177.74 288.387 163.409C288.387 149.078 300.025 137.369 314.463 137.369Z" fill="#231F20"/>
	<path d="M337.125 139.466C337.125 138.767 337.738 138.068 338.525 138.068H368.363C369.15 138.068 369.763 138.679 369.763 139.466V147.33C369.763 148.03 369.15 148.729 368.363 148.729H348.413V157.642H364.863C365.563 157.642 366.263 158.254 366.263 159.04V166.905C366.263 167.691 365.65 168.303 364.863 168.303H348.413V178.002H368.363C369.15 178.002 369.763 178.614 369.763 179.401V187.265C369.763 187.964 369.15 188.663 368.363 188.663H338.525C337.738 188.663 337.125 188.052 337.125 187.265V139.466Z" fill="#231F20"/>
	<path d="M464.175 231.919L508.537 218.724V173.808L550.975 159.564C550.975 159.564 545.2 132.912 520.962 140.602C496.637 148.292 466.8 160.351 466.8 160.351L464.175 231.919Z" fill="#231F20"/>
	<path d="M469.337 121.29V67.8978C469.337 67.8978 516.85 44.304 522.45 42.1194C527.962 40.0221 536.712 38.2744 539.687 45.9643C542.662 53.6541 541.175 70.6068 541.175 70.6068L510.9 84.8505V102.764L469.337 121.29Z" fill="#231F20"/>
	<path d="M567.075 0C569.525 1.57292 581.95 14.0689 581.95 28.2252C581.95 43.7797 581.95 61.6061 555.175 101.191L597.437 116.658C597.437 116.658 618.175 91.4917 620.887 68.9465C623.6 46.4012 612.05 28.4 608.987 26.5649L567.075 0Z" fill="#231F20"/>
	<path d="M429.962 282.165L478.087 288.981C477.3 289.593 563.05 274.912 575.825 269.756C583.612 266.61 608.112 261.105 627.275 231.569C646.437 202.033 639.35 158.865 637.95 154.496C634.712 143.922 627.537 131.252 612.487 123.911C597.437 116.571 597.437 116.571 597.437 116.571L555.175 101.104C555.175 101.104 576.525 109.143 583.612 113.338C590.7 117.532 598.925 132.126 598.312 162.535C597.875 184.906 590.35 218.898 567.862 239.609C555.175 251.318 540.65 259.008 508.362 265.649C476.075 272.378 429.962 282.165 429.962 282.165Z" fill="#231F20"/>
	<path d="M464.175 231.919L508.537 218.724V173.808L550.975 159.564C550.975 159.564 545.2 132.912 520.962 140.602C496.637 148.292 466.8 160.351 466.8 160.351L464.175 231.919Z" fill="url(#paint0_linear)"/>
	<path d="M469.337 121.29V67.8978C469.337 67.8978 516.85 44.304 522.45 42.1194C527.962 40.0221 536.712 38.2744 539.687 45.9643C542.662 53.6541 541.175 70.6068 541.175 70.6068L510.9 84.8505V102.764L469.337 121.29Z" fill="url(#paint1_linear)"/>
	<path d="M567.075 0C569.525 1.57292 581.95 14.0689 581.95 28.2252C581.95 43.7797 581.95 61.6061 555.175 101.191L597.437 116.658C597.437 116.658 618.175 91.4917 620.887 68.9465C623.6 46.4012 612.05 28.4 608.987 26.5649L567.075 0Z" fill="url(#paint2_linear)"/>
	<path d="M429.962 282.165L478.087 288.981C477.3 289.593 563.05 274.912 575.825 269.756C583.612 266.61 608.112 261.105 627.275 231.569C646.437 202.033 639.35 158.865 637.95 154.496C634.712 143.922 627.537 131.252 612.487 123.911C597.437 116.571 597.437 116.571 597.437 116.571L555.175 101.104C555.175 101.104 576.525 109.143 583.612 113.338C590.7 117.532 598.925 132.126 598.312 162.535C597.875 184.906 590.35 218.898 567.862 239.609C555.175 251.318 540.65 259.008 508.362 265.649C476.075 272.378 429.962 282.165 429.962 282.165Z" fill="url(#paint3_linear)"/>
	<defs>
		<linearGradient id="paint0_linear" x1="429.94" y1="185.598" x2="640.349" y2="185.598" gradientUnits="userSpaceOnUse">
			<stop offset="0.00237682" stop-color="#3171F0"/>
			<stop offset="0.5095" stop-color="#9402EE"/>
			<stop offset="1" stop-color="#F00381"/>
		</linearGradient>
		<linearGradient id="paint1_linear" x1="429.941" y1="80.7864" x2="640.35" y2="80.7864" gradientUnits="userSpaceOnUse">
			<stop offset="0.00237682" stop-color="#3171F0"/>
			<stop offset="0.5095" stop-color="#9402EE"/>
			<stop offset="1" stop-color="#F00381"/>
		</linearGradient>
		<linearGradient id="paint2_linear" x1="429.94" y1="58.3249" x2="640.349" y2="58.3249" gradientUnits="userSpaceOnUse">
			<stop offset="0.00237682" stop-color="#3171F0"/>
			<stop offset="0.5095" stop-color="#9402EE"/>
			<stop offset="1" stop-color="#F00381"/>
		</linearGradient>
		<linearGradient id="paint3_linear" x1="429.945" y1="195.099" x2="640.352" y2="195.099" gradientUnits="userSpaceOnUse">
			<stop offset="0.00237682" stop-color="#3171F0"/>
			<stop offset="0.5095" stop-color="#9402EE"/>
			<stop offset="1" stop-color="#F00381"/>
		</linearGradient>
	</defs>
</svg>
