<svg width="195" height="71" viewBox="0 0 195 71" fill="none" xmlns="http://www.w3.org/2000/svg">
<path d="M169.773 0C169.517 0 169.261 0 169.004 0C162.15 0 156.32 0 149.338 0C136.014 0 47.1406 0 33.8802 0C32.9193 0 31.9584 0.0641953 30.9335 0.192586C27.6665 0.641953 24.4635 1.47649 21.3886 2.82459C13.4452 6.29114 7.55176 11.9403 3.64413 19.708C2.1067 22.7893 1.08175 26.0633 0.505212 29.5298C-0.00726438 32.226 -0.0713239 34.9864 0.0567952 37.7468C0.248974 41.0208 0.82551 44.2306 1.85046 47.3119C3.77225 53.0895 6.97523 58.0325 11.5875 62.0127C14.4702 64.5163 17.6732 66.3779 21.1964 67.7902C23.8869 68.8816 26.6415 69.6519 29.4601 70.1655C31.3179 70.4864 33.2396 70.7432 35.1614 70.8716C35.4177 70.8716 35.738 70.9358 35.9942 71H36.2504C36.2504 70.6148 36.2504 70.2297 36.2504 69.8445C36.2504 66.6347 37.0832 63.5533 38.6206 60.7929C40.7346 57.0054 43.7454 54.1808 47.589 52.1908C49.8311 51.0353 52.2653 50.3291 54.7637 49.9439C55.9167 49.8156 57.0698 49.7514 58.2229 49.7514C71.0988 49.7514 156.513 49.7514 169.325 49.7514C169.453 49.7514 169.517 49.7514 169.645 49.7514C183.354 49.7514 194.5 38.5814 194.5 24.8436C194.628 11.17 183.482 0 169.773 0Z" fill="#20BFE1"/>
</svg>
