<svg width="201" height="71" viewBox="0 0 201 71" fill="none" xmlns="http://www.w3.org/2000/svg">
<path d="M175.773 71C175.517 71 175.261 71 175.004 71C168.15 71 162.32 71 155.338 71C142.014 71 47.1406 71 33.8802 71C32.9193 71 31.9584 70.9358 30.9335 70.8074C27.6665 70.358 24.4635 69.5235 21.3886 68.1754C13.4452 64.7089 7.55176 59.0597 3.64413 51.292C2.1067 48.2107 1.08175 44.9367 0.505212 41.4702C-0.00726438 38.774 -0.0713239 36.0136 0.0567952 33.2532C0.248974 29.9792 0.82551 26.7694 1.85046 23.6881C3.77225 17.9105 6.97523 12.9675 11.5875 8.98734C14.4702 6.48373 17.6732 4.62206 21.1964 3.20976C23.8869 2.11844 26.6415 1.3481 29.4601 0.834534C31.3179 0.513557 33.2396 0.256775 35.1614 0.128387C35.4177 0.128387 35.738 0.0641937 35.9942 0H36.2504C36.2504 0.38517 36.2504 0.77034 36.2504 1.15551C36.2504 4.36527 37.0832 7.44666 38.6206 10.2071C40.7346 13.9946 43.7454 16.8192 47.589 18.8092C49.8311 19.9647 52.2653 20.6709 54.7637 21.0561C55.9167 21.1844 57.0698 21.2486 58.2229 21.2486C71.0988 21.2486 162.513 21.2486 175.325 21.2486C175.453 21.2486 175.517 21.2486 175.645 21.2486C189.354 21.2486 200.5 32.4186 200.5 46.1564C200.628 59.83 189.482 71 175.773 71Z" fill="#20BFE1"/>
</svg>
