<svg width="44" height="44" viewBox="0 0 44 44" fill="none" xmlns="http://www.w3.org/2000/svg">
<rect width="44" height="44" rx="22" fill="#4DC7EB"/>
<path fill-rule="evenodd" clip-rule="evenodd" d="M16.335 26.0462C15.888 26.4931 15.888 27.2178 16.335 27.6647C16.7819 28.1116 17.5065 28.1116 17.9535 27.6647L21.9998 23.6184L26.0463 27.6648C26.4932 28.1118 27.2179 28.1118 27.6648 27.6648C28.1117 27.2179 28.1117 26.4933 27.6648 26.0463L23.6183 21.9999L27.6645 17.9537C28.1114 17.5068 28.1114 16.7821 27.6645 16.3352C27.2175 15.8883 26.4929 15.8883 26.046 16.3352L21.9998 20.3814L17.9538 16.3354C17.5069 15.8884 16.7822 15.8884 16.3353 16.3354C15.8884 16.7823 15.8884 17.5069 16.3353 17.9539L20.3813 21.9999L16.335 26.0462Z" fill="white"/>
</svg>
