<svg xmlns="http://www.w3.org/2000/svg" xmlns:xlink="http://www.w3.org/1999/xlink" viewBox="0 0 740.71 906"><defs><style>.cls-1{isolation:isolate;}.cls-13,.cls-18,.cls-2,.cls-23,.cls-26,.cls-29,.cls-43,.cls-5,.cls-8{mix-blend-mode:multiply;}.cls-18,.cls-2,.cls-26,.cls-32,.cls-36,.cls-40{opacity:0.5;}.cls-2{fill:url(#_ÂÁ_Ï_ÌÌ_È_ËÂÌÚ_123);}.cls-3{fill:url(#_ÂÁ_Ï_ÌÌ_È_ËÂÌÚ_129);}.cls-4{fill:url(#_ÂÁ_Ï_ÌÌ_È_ËÂÌÚ_28);}.cls-13,.cls-23,.cls-29,.cls-5,.cls-8{opacity:0.3;}.cls-5{fill:url(#_ÂÁ_Ï_ÌÌ_È_ËÂÌÚ_153);}.cls-6{fill:url(#_ÂÁ_Ï_ÌÌ_È_ËÂÌÚ_46);}.cls-7{fill:url(#_ÂÁ_Ï_ÌÌ_È_ËÂÌÚ_36);}.cls-8{fill:url(#_ÂÁ_Ï_ÌÌ_È_ËÂÌÚ_153-2);}.cls-9{fill:#fff;}.cls-10{fill:url(#_ÂÁ_Ï_ÌÌ_È_ËÂÌÚ_46-2);}.cls-11{fill:url(#_ÂÁ_Ï_ÌÌ_È_ËÂÌÚ_28-2);}.cls-12{fill:url(#_ÂÁ_Ï_ÌÌ_È_ËÂÌÚ_46-3);}.cls-13{fill:url(#_ÂÁ_Ï_ÌÌ_È_ËÂÌÚ_153-3);}.cls-14{fill:url(#_ÂÁ_Ï_ÌÌ_È_ËÂÌÚ_28-3);}.cls-15{fill:url(#_ÂÁ_Ï_ÌÌ_È_ËÂÌÚ_91);}.cls-16{fill:url(#_ÂÁ_Ï_ÌÌ_È_ËÂÌÚ_36-2);}.cls-17{fill:#6340a2;}.cls-18{fill:url(#_ÂÁ_Ï_ÌÌ_È_ËÂÌÚ_416);}.cls-19,.cls-20,.cls-32,.cls-36,.cls-40{mix-blend-mode:screen;}.cls-19,.cls-20{opacity:0.72;}.cls-19{fill:url(#_ÂÁ_Ï_ÌÌ_È_ËÂÌÚ_134);}.cls-20{fill:url(#_ÂÁ_Ï_ÌÌ_È_ËÂÌÚ_143);}.cls-21{fill:url(#_ÂÁ_Ï_ÌÌ_È_ËÂÌÚ_46-4);}.cls-22{fill:url(#_ÂÁ_Ï_ÌÌ_È_ËÂÌÚ_28-4);}.cls-23{fill:url(#_ÂÁ_Ï_ÌÌ_È_ËÂÌÚ_153-4);}.cls-24{fill:url(#_ÂÁ_Ï_ÌÌ_È_ËÂÌÚ_46-5);}.cls-25{fill:url(#_ÂÁ_Ï_ÌÌ_È_ËÂÌÚ_28-5);}.cls-26{fill:url(#_ÂÁ_Ï_ÌÌ_È_ËÂÌÚ_416-2);}.cls-27{fill:url(#_ÂÁ_Ï_ÌÌ_È_ËÂÌÚ_46-6);}.cls-28{fill:url(#_ÂÁ_Ï_ÌÌ_È_ËÂÌÚ_46-7);}.cls-29{fill:url(#_ÂÁ_Ï_ÌÌ_È_ËÂÌÚ_153-5);}.cls-30{fill:url(#_ÂÁ_Ï_ÌÌ_È_ËÂÌÚ_46-8);}.cls-31{fill:url(#_ÂÁ_Ï_ÌÌ_È_ËÂÌÚ_132);}.cls-32{fill:url(#_ÂÁ_Ï_ÌÌ_È_ËÂÌÚ_54);}.cls-33{fill:url(#_ÂÁ_Ï_ÌÌ_È_ËÂÌÚ_17);}.cls-34{fill:url(#_ÂÁ_Ï_ÌÌ_È_ËÂÌÚ_17-2);}.cls-35{fill:#2f95cd;}.cls-36{fill:url(#_ÂÁ_Ï_ÌÌ_È_ËÂÌÚ_54-2);}.cls-37{fill:url(#_ÂÁ_Ï_ÌÌ_È_ËÂÌÚ_28-6);}.cls-38{fill:url(#_ÂÁ_Ï_ÌÌ_È_ËÂÌÚ_8);}.cls-39{fill:url(#_ÂÁ_Ï_ÌÌ_È_ËÂÌÚ_65);}.cls-40{fill:url(#_ÂÁ_Ï_ÌÌ_È_ËÂÌÚ_54-3);}.cls-41{fill:url(#_ÂÁ_Ï_ÌÌ_È_ËÂÌÚ_46-9);}.cls-42{fill:#d1d3d4;}.cls-43,.cls-49{fill:#939598;}.cls-43{opacity:0.25;}.cls-44{fill:#1c75bc;}.cls-45{fill:#f1f2f2;}.cls-46{fill:#00aeef;}.cls-47{fill:#bcbec0;}.cls-48{fill:#e6e7e8;}.cls-50{fill:url(#linear-gradient);}.cls-51{fill:#414042;}.cls-52{fill:url(#_ÂÁ_Ï_ÌÌ_È_ËÂÌÚ_46-10);}.cls-53{fill:url(#_ÂÁ_Ï_ÌÌ_È_ËÂÌÚ_28-7);}</style><radialGradient id="_ÂÁ_Ï_ÌÌ_È_ËÂÌÚ_123" cx="309.18" cy="1740.06" r="169.1" gradientTransform="translate(0 459.02) scale(1 0.22)" gradientUnits="userSpaceOnUse"><stop offset="0" stop-color="#be9dea"/><stop offset="0.39" stop-color="#e0bff5"/><stop offset="1" stop-color="#fff"/></radialGradient><linearGradient id="_ÂÁ_Ï_ÌÌ_È_ËÂÌÚ_129" x1="-3822.1" y1="578.86" x2="-3799.32" y2="397.5" gradientTransform="matrix(-1, 0, 0, 1, -3391.64, 0)" gradientUnits="userSpaceOnUse"><stop offset="0" stop-color="#cbc1f7"/><stop offset="1" stop-color="#d4bef1"/></linearGradient><linearGradient id="_ÂÁ_Ï_ÌÌ_È_ËÂÌÚ_28" x1="-3869.05" y1="571.9" x2="-3874.2" y2="521.34" gradientTransform="matrix(-1, 0, 0, 1, -3391.64, 0)" gradientUnits="userSpaceOnUse"><stop offset="0" stop-color="#be9dea"/><stop offset="1" stop-color="#9e8cef"/></linearGradient><linearGradient id="_ÂÁ_Ï_ÌÌ_È_ËÂÌÚ_153" x1="-3809.39" y1="572.43" x2="-3809.39" y2="405.61" gradientTransform="matrix(-1, 0, 0, 1, -3391.64, 0)" gradientUnits="userSpaceOnUse"><stop offset="0" stop-color="#9d68c2"/><stop offset="1" stop-color="#ccedff"/></linearGradient><linearGradient id="_ÂÁ_Ï_ÌÌ_È_ËÂÌÚ_46" x1="-3765.53" y1="787.34" x2="-3746.84" y2="638.54" gradientTransform="matrix(-1, 0, 0, 1, -3391.64, 0)" gradientUnits="userSpaceOnUse"><stop offset="0" stop-color="#cbc1f7"/><stop offset="1" stop-color="#e8dcf7"/></linearGradient><linearGradient id="_ÂÁ_Ï_ÌÌ_È_ËÂÌÚ_36" x1="-3793.6" y1="666.62" x2="-3704.84" y2="666.62" gradientTransform="matrix(-1, 0, 0, 1, -3391.64, 0)" gradientUnits="userSpaceOnUse"><stop offset="0" stop-color="#8879ea"/><stop offset="1" stop-color="#9e8cef"/></linearGradient><linearGradient id="_ÂÁ_Ï_ÌÌ_È_ËÂÌÚ_153-2" x1="-3750.5" y1="782.87" x2="-3750.5" y2="633.18" xlink:href="#_ÂÁ_Ï_ÌÌ_È_ËÂÌÚ_153"/><linearGradient id="_ÂÁ_Ï_ÌÌ_È_ËÂÌÚ_46-2" x1="-3926.19" y1="614.86" x2="-3916.15" y2="534.88" xlink:href="#_ÂÁ_Ï_ÌÌ_È_ËÂÌÚ_46"/><linearGradient id="_ÂÁ_Ï_ÌÌ_È_ËÂÌÚ_28-2" x1="-3902.53" y1="566.13" x2="-3904.75" y2="544.36" xlink:href="#_ÂÁ_Ï_ÌÌ_È_ËÂÌÚ_28"/><linearGradient id="_ÂÁ_Ï_ÌÌ_È_ËÂÌÚ_46-3" x1="-3704.89" y1="697.59" x2="-3664.29" y2="374.35" xlink:href="#_ÂÁ_Ï_ÌÌ_È_ËÂÌÚ_46"/><linearGradient id="_ÂÁ_Ï_ÌÌ_È_ËÂÌÚ_153-3" x1="-3609.48" y1="641.44" x2="-3609.48" y2="477.91" xlink:href="#_ÂÁ_Ï_ÌÌ_È_ËÂÌÚ_153"/><linearGradient id="_ÂÁ_Ï_ÌÌ_È_ËÂÌÚ_28-3" x1="-3797.89" y1="594.72" x2="-3639.37" y2="594.72" xlink:href="#_ÂÁ_Ï_ÌÌ_È_ËÂÌÚ_28"/><radialGradient id="_ÂÁ_Ï_ÌÌ_È_ËÂÌÚ_91" cx="-3715.44" cy="667.12" r="119.79" gradientTransform="matrix(-1, 0, 0, 1, -3391.64, 0)" gradientUnits="userSpaceOnUse"><stop offset="0" stop-color="#45ffcd"/><stop offset="1" stop-color="#22e0ff"/></radialGradient><linearGradient id="_ÂÁ_Ï_ÌÌ_È_ËÂÌÚ_36-2" x1="-3626.54" y1="477.35" x2="-3585.73" y2="477.35" xlink:href="#_ÂÁ_Ï_ÌÌ_È_ËÂÌÚ_36"/><linearGradient id="_ÂÁ_Ï_ÌÌ_È_ËÂÌÚ_416" x1="-3678.98" y1="425.25" x2="-3678.98" y2="373.92" gradientTransform="matrix(-1, 0, 0, 1, -3391.64, 0)" gradientUnits="userSpaceOnUse"><stop offset="0" stop-color="#8da4e5"/><stop offset="1" stop-color="#755cbb"/></linearGradient><linearGradient id="_ÂÁ_Ï_ÌÌ_È_ËÂÌÚ_134" x1="-3789.64" y1="539.02" x2="-3658.11" y2="539.02" gradientTransform="matrix(-1, 0, 0, 1, -3391.64, 0)" gradientUnits="userSpaceOnUse"><stop offset="0"/><stop offset="1" stop-color="#d4e2ff"/></linearGradient><linearGradient id="_ÂÁ_Ï_ÌÌ_È_ËÂÌÚ_143" x1="-3717.35" y1="691.05" x2="-3717.35" y2="675.86" gradientTransform="matrix(-1, 0, 0, 1, -3391.64, 0)" gradientUnits="userSpaceOnUse"><stop offset="0" stop-color="#d4e2ff"/><stop offset="1"/></linearGradient><linearGradient id="_ÂÁ_Ï_ÌÌ_È_ËÂÌÚ_46-4" x1="-3559.74" y1="648.39" x2="-3529.1" y2="404.49" xlink:href="#_ÂÁ_Ï_ÌÌ_È_ËÂÌÚ_46"/><linearGradient id="_ÂÁ_Ï_ÌÌ_È_ËÂÌÚ_28-4" x1="-3509.29" y1="649.87" x2="-3509.29" y2="602.92" xlink:href="#_ÂÁ_Ï_ÌÌ_È_ËÂÌÚ_28"/><linearGradient id="_ÂÁ_Ï_ÌÌ_È_ËÂÌÚ_153-4" x1="-3538.23" y1="653.9" x2="-3538.23" y2="395.92" xlink:href="#_ÂÁ_Ï_ÌÌ_È_ËÂÌÚ_153"/><linearGradient id="_ÂÁ_Ï_ÌÌ_È_ËÂÌÚ_46-5" x1="-515.68" y1="599.93" x2="-498.84" y2="465.85" gradientTransform="translate(661.88 202.11) rotate(5.81)" xlink:href="#_ÂÁ_Ï_ÌÌ_È_ËÂÌÚ_46"/><linearGradient id="_ÂÁ_Ï_ÌÌ_È_ËÂÌÚ_28-5" x1="-486.09" y1="601.79" x2="-486.09" y2="480.34" gradientTransform="translate(661.88 202.11) rotate(5.81)" xlink:href="#_ÂÁ_Ï_ÌÌ_È_ËÂÌÚ_28"/><linearGradient id="_ÂÁ_Ï_ÌÌ_È_ËÂÌÚ_416-2" x1="-483.61" y1="564.2" x2="-483.61" y2="517.24" gradientTransform="translate(661.88 202.11) rotate(5.81)" xlink:href="#_ÂÁ_Ï_ÌÌ_È_ËÂÌÚ_416"/><linearGradient id="_ÂÁ_Ï_ÌÌ_È_ËÂÌÚ_46-6" x1="-480.46" y1="561.98" x2="-470.5" y2="482.66" gradientTransform="translate(661.88 202.11) rotate(5.81)" xlink:href="#_ÂÁ_Ï_ÌÌ_È_ËÂÌÚ_46"/><linearGradient id="_ÂÁ_Ï_ÌÌ_È_ËÂÌÚ_46-7" x1="-3635.3" y1="801.13" x2="-3611.3" y2="610.04" xlink:href="#_ÂÁ_Ï_ÌÌ_È_ËÂÌÚ_46"/><linearGradient id="_ÂÁ_Ï_ÌÌ_È_ËÂÌÚ_153-5" x1="-3602.32" y1="806.66" x2="-3602.32" y2="613.4" xlink:href="#_ÂÁ_Ï_ÌÌ_È_ËÂÌÚ_153"/><linearGradient id="_ÂÁ_Ï_ÌÌ_È_ËÂÌÚ_46-8" x1="175.71" y1="-83.53" x2="219.36" y2="-431.11" gradientTransform="matrix(0.97, 0.25, -0.25, 0.97, 35.12, 439.49)" xlink:href="#_ÂÁ_Ï_ÌÌ_È_ËÂÌÚ_46"/><linearGradient id="_ÂÁ_Ï_ÌÌ_È_ËÂÌÚ_132" x1="234.46" y1="-109.28" x2="234.46" y2="-409.36" gradientTransform="matrix(0.97, 0.25, -0.25, 0.97, 35.12, 439.49)" gradientUnits="userSpaceOnUse"><stop offset="0" stop-color="#0665bd"/><stop offset="1" stop-color="#1a1f77"/></linearGradient><linearGradient id="_ÂÁ_Ï_ÌÌ_È_ËÂÌÚ_54" x1="144.02" y1="-129.98" x2="150.86" y2="-184.42" gradientTransform="matrix(0.97, 0.25, -0.25, 0.97, 35.12, 439.49)" gradientUnits="userSpaceOnUse"><stop offset="0"/><stop offset="1" stop-color="#6a9bff"/></linearGradient><linearGradient id="_ÂÁ_Ï_ÌÌ_È_ËÂÌÚ_17" x1="1024.42" y1="933.28" x2="1024.42" y2="852.32" gradientTransform="matrix(0.72, -0.24, 0.32, 0.95, -592.52, -367.42)" xlink:href="#_ÂÁ_Ï_ÌÌ_È_ËÂÌÚ_91"/><linearGradient id="_ÂÁ_Ï_ÌÌ_È_ËÂÌÚ_17-2" x1="-247.86" y1="664.1" x2="-247.86" y2="571.4" gradientTransform="matrix(1.33, -0.27, 0.2, 0.98, 477.25, -424.29)" xlink:href="#_ÂÁ_Ï_ÌÌ_È_ËÂÌÚ_91"/><linearGradient id="_ÂÁ_Ï_ÌÌ_È_ËÂÌÚ_54-2" x1="100.66" y1="-325.07" x2="341.1" y2="-325.07" xlink:href="#_ÂÁ_Ï_ÌÌ_È_ËÂÌÚ_54"/><linearGradient id="_ÂÁ_Ï_ÌÌ_È_ËÂÌÚ_28-6" x1="-30.93" y1="-259.88" x2="-10.45" y2="-422.9" gradientTransform="translate(22.4 635.31) rotate(21)" xlink:href="#_ÂÁ_Ï_ÌÌ_È_ËÂÌÚ_28"/><linearGradient id="_ÂÁ_Ï_ÌÌ_È_ËÂÌÚ_8" x1="143.59" y1="-183.43" x2="143.59" y2="-230.44" gradientTransform="matrix(0.98, 0.21, -0.21, 0.98, 14.68, 539.69)" gradientUnits="userSpaceOnUse"><stop offset="0" stop-color="#dd1a8f"/><stop offset="1" stop-color="#fe117e"/></linearGradient><linearGradient id="_ÂÁ_Ï_ÌÌ_È_ËÂÌÚ_65" x1="217.52" y1="391.71" x2="217.52" y2="371.75" gradientTransform="translate(-26.39 -19.87) rotate(-0.85)" gradientUnits="userSpaceOnUse"><stop offset="0" stop-color="#d93de3"/><stop offset="1" stop-color="#ff6dba"/></linearGradient><linearGradient id="_ÂÁ_Ï_ÌÌ_È_ËÂÌÚ_54-3" x1="292.68" y1="-122.03" x2="302.43" y2="-199.62" xlink:href="#_ÂÁ_Ï_ÌÌ_È_ËÂÌÚ_54"/><linearGradient id="_ÂÁ_Ï_ÌÌ_È_ËÂÌÚ_46-9" x1="-6.43" y1="-167.15" x2="-6.43" y2="-229.54" gradientTransform="matrix(0.97, 0.25, -0.25, 0.97, 35.12, 439.49)" xlink:href="#_ÂÁ_Ï_ÌÌ_È_ËÂÌÚ_46"/><linearGradient id="linear-gradient" x1="600.59" y1="651.66" x2="625.21" y2="651.66" gradientTransform="translate(12.07 1.63)" gradientUnits="userSpaceOnUse"><stop offset="0" stop-color="#3171f0"/><stop offset="0.51" stop-color="#9402ee"/><stop offset="1" stop-color="#f00381"/></linearGradient><linearGradient id="_ÂÁ_Ï_ÌÌ_È_ËÂÌÚ_46-10" x1="-3919.34" y1="561.14" x2="-3912.9" y2="509.85" xlink:href="#_ÂÁ_Ï_ÌÌ_È_ËÂÌÚ_46"/><linearGradient id="_ÂÁ_Ï_ÌÌ_È_ËÂÌÚ_28-7" x1="-3897.5" y1="543.62" x2="-3899.81" y2="521" xlink:href="#_ÂÁ_Ï_ÌÌ_È_ËÂÌÚ_28"/></defs><g class="cls-1"><g id="Layer_1" data-name="Layer 1"><ellipse class="cls-2" cx="309.18" cy="846.18" rx="169.08" ry="37.63"/><path class="cls-3" d="M376.73,525.93S462,574.32,482.06,572.38s11.14-47.54,11.14-47.54c-2.66-3.15-5.64-6.39-8.81-9.74l0,0c-32.06-33.83-86.77-77-118.21-97.5l0,0c-13.22-8.64-22.35-13.29-23.89-11.55C330.56,418.93,376.73,525.93,376.73,525.93Z"/><path class="cls-4" d="M493.2,524.83s-11.14-9.37-25,3.22.44,42.81,13.82,44.32S503.47,544.42,493.2,524.83Z"/><path class="cls-5" d="M376.73,525.93S462,574.32,482.06,572.38s11.14-47.54,11.14-47.54c-2.66-3.15-5.64-6.39-8.81-9.74l0,0s-20.85,12.31-59.26,6.43-58.95-103.93-58.95-103.93l0,0c-13.22-8.64-22.35-13.29-23.89-11.55C330.56,418.93,376.73,525.93,376.73,525.93Z"/><path class="cls-6" d="M314.12,691c1.47,18.12,30.18,76.11,52.67,91.87,0,0,0,0,0,.07,4.34,3,8.44,4.47,12.06,3.76,16.17-3.12,24-80.56,24.71-124.17.28-16.85-.51-28.6-2.25-29.08C386.64,629.55,312.41,669.44,314.12,691Z"/><path class="cls-7" d="M314.13,696.91S334,707.71,365,692.17c24.25-12.15,40.43-51.71,36.33-58.72S302.91,668.81,314.13,696.91Z"/><path class="cls-8" d="M314.12,691c1.47,18.12,30.18,76.11,52.67,91.87-16.89-19.41-17.47-59-6.7-77.1,8.1-13.74,32.23-34.15,43.5-43.24.28-16.85-.51-28.6-2.25-29.08C386.64,629.55,312.41,669.44,314.12,691Z"/><path class="cls-9" d="M380.2,708.55c4.95-1.13,3.67,12.9,2.84,13.8s-3.84-3.32-4.62-7C377.72,712.08,378.46,709,380.2,708.55Z"/><path class="cls-10" d="M471.7,553.59s16.83,26.55,35,39.5,53.74,18.52,53.74,18.52,25.26-11.66,25.26-29c0,0-27.2-13.8-37.56-35.65,0,0-35.34-12.59-50.69-8.48S471.7,553.59,471.7,553.59Z"/><polygon class="cls-11" points="522.42 545.3 493.56 564.37 530.2 548.59 522.42 545.3"/><path class="cls-12" d="M193.24,602.79c14.59,66.51,52.67,95.05,120.88,94.12C381,696,422.05,623.54,400.48,538.47,386.71,484.17,370.72,436,342.25,406l0,0,0-.07c-16.1-16.95-36.19-28-62.13-31.1-20.47-2.42-37.46,8.58-51,27.28C193.82,450.78,182,551.53,193.24,602.79Z"/><path class="cls-13" d="M229.1,477.91S222,529.78,222,564.37c0,41,25.2,77.07,25.2,77.07L196,614s-9.55-26.83-7.13-54.29,4.65-40,4.65-40Z"/><path class="cls-14" d="M404.46,548.91s-15.53-50.26-63.58-50.26c-57.58,0-96.38,63.65-92.93,106.82S264.6,689.09,319,690.8C319,690.8,420.86,688.52,404.46,548.91Z"/><path class="cls-15" d="M403.91,555.05s-15.53-50.26-63.58-50.26c-57.58,0-96.39,63.65-92.93,106.82s16.65,83.62,71,85.33C318.44,696.94,420.31,694.66,403.91,555.05Z"/><path class="cls-16" d="M202.44,533.17c2.49,0,5.16-2.08,7.86-5.67,12.06-16.07,24.74-62.44,24.61-88.21-.07-10-2-16.88-6.77-17.7-7.69-1.34-23.31,24.6-30.9,61.07C192.87,503.88,191.78,533.17,202.44,533.17Z"/><path class="cls-17" d="M210.3,527.5c12.06-16.07,24.74-62.44,24.61-88.21-7.56,9.77-16.41,29.66-21.57,54.48C211.09,504.57,209.72,517.45,210.3,527.5Z"/><path class="cls-18" d="M229.61,401.52S300,428.05,327,425c26.21-2.94,16.37-18.66,15.79-19.55l0,0,0-.07c-16.1-17-36.19-28-62.13-31.1C260.13,371.83,243.14,382.83,229.61,401.52Z"/><path class="cls-19" d="M397.78,550.45c-7.25,13.81-34.25-3.89-68,0S278,572.17,268.27,567.28,289.08,512,340.88,510C382.24,508.36,400.25,545.74,397.78,550.45Z"/><path class="cls-20" d="M360.07,675.86A59.07,59.07,0,0,1,322.54,691c-23.41.83-31.18-10.5-31.18-10.5s10.36-4.53,26.87-1.3S349.79,680.28,360.07,675.86Z"/><path class="cls-9" d="M274.84,442.7c4.09.11,11.24,39.91,8,41.23s-7.72-7.11-11-20.16S270.9,442.6,274.84,442.7Z"/><path class="cls-21" d="M87.91,629.55c7.79,25.05,37.15,27.65,45.73,21.6,7.48-5.26,28.16-29.53,47.91-73.95,0,0,0-.07.07-.11q4.35-9.78,8.61-20.91c22.05-57.86,38.62-164.42,15.83-160.29a.31.31,0,0,0-.11,0C139.79,408,80.15,604.54,87.91,629.55Z"/><path class="cls-22" d="M148.07,635.6s-.37-23.06-20.77-31.17-40.06,19.1-40.06,19.1-.19,25.9,27.44,26.33S148.07,635.6,148.07,635.6Z"/><path class="cls-23" d="M87.91,629.55c7.79,25.05,37.15,27.65,45.73,21.6,7.48-5.26,28.16-29.53,47.91-73.95C179.6,581,165.11,608,152.13,608c-14,0-40.91-38.86-13.67-120.27,26.34-78.91,65.1-91.11,67.49-91.8C139.79,408,80.15,604.54,87.91,629.55Z"/><path class="cls-24" d="M123.42,616.22c-11.58-3.12-29.82,6.16-36.17,15.51S65,680.51,74.1,731.45c0,0,17.27,22.88,36.69,17.86,14.74-3.82,18.26-47.7,22.24-78.9S142.5,621.36,123.42,616.22Z"/><path class="cls-25" d="M108,750.64s-7.14-102.1,34.4-118.58c0,0,.21,16.57-8.1,54.93S117.49,748.27,108,750.64Z"/><path class="cls-26" d="M110.79,694.67s8.63,15.85,15.31,19a17.51,17.51,0,0,0,12.35,1.13l-21-48.16S111,684.24,110.79,694.67Z"/><path class="cls-27" d="M117.49,666.61s8.45-27.22,25.93-32.3c0,0,14,17,4,76.35,0,0-9.88,10.59-21-2.14C126.42,708.52,118.21,687.09,117.49,666.61Z"/><path class="cls-9" d="M128.09,657.79c-5.7-.58.4,25.54,3.43,25.25S132.84,658.28,128.09,657.79Z"/><path class="cls-9" d="M193.54,489c10,5.9-10.65,47.58-15.51,48.63S186.71,485,193.54,489Z"/><path class="cls-9" d="M175.07,544.53c2.11.23-.21,10-1.79,11.28s-4.85,1.57-5.77.65S172.67,544.27,175.07,544.53Z"/><path class="cls-9" d="M453.89,492.72c-.9,2.92-21-6.15-21.05-14.81S455.19,488.51,453.89,492.72Z"/><path class="cls-28" d="M195.19,805.83c4.51,2.19,10.8-.1,17.94-5.36,7.79-5.78,16.64-15.07,25.43-25.91l.07-.07.1-.1c24.47-30.14,48.32-71.94,47.13-81.3-4.21-32.4-48.23-60.53-74.37-72.94-10.22-4.85-17.7-7.27-19-6.66C187.81,615.75,171.88,794.52,195.19,805.83Z"/><path class="cls-29" d="M195.19,805.83c4.51,2.19,10.8-.1,17.94-5.36l25.43-25.91c-2.46,2.26-30.86,26.9-36.23-24.54C196.69,696.23,214,623.57,214,623.57l-2.46-3.42c-10.22-4.85-17.7-7.27-19-6.66C187.81,615.75,171.88,794.52,195.19,805.83Z"/><path class="cls-9" d="M258.05,691.42c8.89,2-4,23.74-6,24.55s-3.67-8.34-2.12-14.89C251.3,695.24,254.92,690.72,258.05,691.42Z"/><path class="cls-9" d="M250,718.55c1.69,1.34-2.3,8.1-3.75,6.67s-1.09-5-.16-6.08A3.34,3.34,0,0,1,250,718.55Z"/><path class="cls-30" d="M235.46,64.31c-121.43,36.33-157.21,197-132,265.13,29.27,79.31,285.9,101.17,349.32,0C516.9,227.12,386.44,19.14,235.46,64.31Z"/><path class="cls-31" d="M293.18,95.64c-91.54,19.29-146.59,179.58-106.87,248s237.43,58.57,275.57-35.21C495.89,224.79,402.73,72.56,293.18,95.64Z"/><path class="cls-32" d="M242.3,360.87s-40-3.93-51-31,1.34-42.45,7-42.39,14.06,38.52,24.59,54S242.3,360.87,242.3,360.87Z"/><path class="cls-33" d="M416.26,267.54c12.25,14.41,34.57,2.63,32.89-23.16s-14-55.84-26.47-53S395.9,243.59,416.26,267.54Z"/><path class="cls-34" d="M241.8,284.65c21.72,25.25,58.23,2.57,64.91-24.27s-11.13-59.57-37.36-59.25C240.63,201.48,219.49,258.72,241.8,284.65Z"/><path class="cls-35" d="M327.33,309.09c-3.7,3.72,22.74,33.84,39.77,31.53,19.95-2.71,31.84-38.76,27.57-39.72-1.26-.28-14.09,6-31.05,8C349.14,310.65,329.2,307.21,327.33,309.09Z"/><path class="cls-36" d="M199.77,221.81c9.32,23.47,68-33.42,118.22-44.56,57.3-12.72,123.61,33.87,130.66,27.16s-37.2-93.61-121.44-102.18S191.16,200.15,199.77,221.81Z"/><path class="cls-37" d="M79.67,224.86S81.85,204.55,96,201.22c0,0,19,3.89,19,23.25,0,0-67.85,108.78-42.58,135.62,23.53,25,107.15,8.08,107.15,8.08l4.72,6.44s-73.18,22.94-109.8.36S79.67,224.86,79.67,224.86Z"/><path class="cls-38" d="M160.54,365.06c-9.69,11.3,11.42,23.2,28.65,24.81,19.34,1.82,53.52-6.33,51.16-25.74S183.28,338.56,160.54,365.06Z"/><path class="cls-39" d="M161.88,367.09c-.54,3.19,68.39,2.93,69.83-9.27S166.05,342.42,161.88,367.09Z"/><path class="cls-40" d="M299.61,375.5s35.95,1.46,66.89-22.34,61.14-10.71,61.14-10.71S367.5,393.19,299.61,375.5Z"/><path class="cls-9" d="M216.4,94.32c-1.83,6.54,46.74-15.52,42.43-19.52S218.49,86.84,216.4,94.32Z"/><path class="cls-41" d="M87.62,216c-4-2.58-21.88,57.84-18.56,59.6S93.79,220,87.62,216Z"/><path class="cls-42" d="M609.85,505l107,147.61A8.21,8.21,0,0,1,715,664.09l-6.38,4.62a8.21,8.21,0,0,0,1.83-11.46L603.48,509.64A8.22,8.22,0,0,0,592,507.81l6.38-4.62A8.21,8.21,0,0,1,609.85,505Z"/><rect class="cls-43" x="624.18" y="534.07" width="7.88" height="5.75" transform="translate(-195.57 470.7) rotate(-35.93)"/><path class="cls-44" d="M598.39,503.19,592,507.81a8.21,8.21,0,0,1,11.46,1.83l2.41,3.32,18.33,25.3,6.38-4.62-18.33-25.3L609.85,505A8.21,8.21,0,0,0,598.39,503.19Z"/><path class="cls-45" d="M464.65,653.88l86.21,119a8.22,8.22,0,0,0,11.47,1.83l147.6-107a8.21,8.21,0,0,0,1.83-11.46l-86.22-119Z"/><rect class="cls-43" x="446.47" y="593.71" width="198.7" height="5.75" transform="translate(-246.22 433.75) rotate(-35.93)"/><path class="cls-46" d="M593.35,506.85,445.74,613.8a8.21,8.21,0,0,0-1.83,11.46l3.37,4.66,17.37,24L625.54,537.3l-17.36-24-3.37-4.65A8.21,8.21,0,0,0,593.35,506.85Z"/><rect class="cls-47" x="600.03" y="571.01" width="24.62" height="24.62" rx="1.68" transform="translate(-225.78 470.26) rotate(-35.93)"/><rect class="cls-48" x="575.07" y="589.1" width="24.62" height="24.62" rx="1.68" transform="translate(-241.14 459.06) rotate(-35.93)"/><rect class="cls-48" x="550.11" y="607.18" width="24.62" height="24.62" rx="1.68" transform="translate(-256.5 447.85) rotate(-35.93)"/><rect class="cls-48" x="525.15" y="625.27" width="24.62" height="24.62" rx="1.68" transform="translate(-271.86 436.65) rotate(-35.93)"/><rect class="cls-47" x="618.82" y="596.95" width="24.62" height="24.62" rx="1.68" transform="translate(-237.42 486.23) rotate(-35.93)"/><rect class="cls-48" x="593.86" y="615.04" width="24.62" height="24.62" rx="1.68" transform="matrix(0.81, -0.59, 0.59, 0.81, -252.78, 475.02)"/><rect class="cls-48" x="568.9" y="633.13" width="24.62" height="24.62" rx="1.68" transform="translate(-268.14 463.82) rotate(-35.93)"/><rect class="cls-48" x="543.94" y="651.21" width="24.62" height="24.62" rx="1.68" transform="translate(-283.51 452.61) rotate(-35.93)"/><rect class="cls-48" x="518.98" y="669.3" width="24.62" height="24.62" rx="1.68" transform="translate(-298.87 441.41) rotate(-35.93)"/><rect class="cls-47" x="637.62" y="622.89" width="24.62" height="24.62" rx="1.68" transform="translate(-249.07 502.19) rotate(-35.93)"/><rect class="cls-49" x="612.66" y="640.98" width="24.62" height="24.62" rx="1.68" transform="translate(-264.43 490.99) rotate(-35.93)"/><rect class="cls-50" x="612.66" y="640.98" width="24.62" height="24.62" rx="1.68" transform="translate(-264.43 490.99) rotate(-35.93)"/><rect class="cls-48" x="587.7" y="659.07" width="24.62" height="24.62" rx="1.68" transform="translate(-279.79 479.78) rotate(-35.93)"/><rect class="cls-48" x="562.74" y="677.15" width="24.62" height="24.62" rx="1.68" transform="translate(-295.15 468.58) rotate(-35.93)"/><rect class="cls-48" x="537.78" y="695.24" width="24.62" height="24.62" rx="1.68" transform="translate(-310.51 457.37) rotate(-35.93)"/><rect class="cls-48" x="606.5" y="685.01" width="24.62" height="24.62" rx="1.68" transform="translate(-291.44 495.75) rotate(-35.93)"/><rect class="cls-48" x="581.54" y="703.1" width="24.62" height="24.62" rx="1.68" transform="translate(-306.8 484.54) rotate(-35.93)"/><rect class="cls-48" x="556.58" y="721.18" width="24.62" height="24.62" rx="1.68" transform="translate(-322.16 473.34) rotate(-35.93)"/><rect class="cls-43" x="459.43" y="577.25" width="150.13" height="7.43" rx="0.82" transform="translate(-239.2 424.14) rotate(-35.93)"/><rect class="cls-43" x="463.38" y="585.47" width="150.13" height="1.89" rx="0.41" transform="translate(-241.65 427.5) rotate(-35.93)"/><rect class="cls-51" x="458.38" y="592.32" width="7.8" height="20.52" rx="2.05" transform="translate(-265.63 385.87) rotate(-35.93)"/><rect class="cls-51" x="487.19" y="571.44" width="7.8" height="20.52" rx="2.05" transform="translate(-247.89 398.81) rotate(-35.93)"/><rect class="cls-51" x="516.01" y="550.57" width="7.8" height="20.52" rx="2.05" transform="translate(-230.16 411.75) rotate(-35.93)"/><rect class="cls-51" x="544.82" y="529.69" width="7.8" height="20.52" rx="2.05" transform="translate(-212.43 424.68) rotate(-35.93)"/><rect class="cls-51" x="573.64" y="508.81" width="7.8" height="20.52" rx="2.05" transform="translate(-194.7 437.62) rotate(-35.93)"/><path class="cls-44" d="M636.72,553.21a38.44,38.44,0,0,0-9.32,5.08l-3.56,2.58a38.37,38.37,0,0,0,7.9,66.33l5.33,18,3.73-2.7,10.49-12.64a38.6,38.6,0,0,0,18.16-7.27L673,620a38.38,38.38,0,0,0-36.29-66.83Z"/><path class="cls-46" d="M633,555.91a38.37,38.37,0,0,0-1.25,71.29l5.33,18,12.58-15.17A38.38,38.38,0,1,0,633,555.91Z"/><polygon class="cls-44" points="638.1 568.97 655.47 595.05 648.9 599.81 629.58 575.15 638.1 568.97"/><circle class="cls-44" cx="657.98" cy="605.33" r="5.8" transform="translate(-230.01 501.23) rotate(-35.93)"/><polygon class="cls-9" points="637.03 569.75 654.4 595.82 647.83 600.58 628.51 575.92 637.03 569.75"/><circle class="cls-9" cx="656.92" cy="606.1" r="5.8" transform="translate(-230.66 500.75) rotate(-35.93)"/><path class="cls-52" d="M482.23,530.81s18.14-19.06,33.36-20.23,53.84,15.51,65.54,37.31c0,0-1.75,5.22-15,8.34s-43.69-10.93-43.69-10.93l-50.72,8.59S471.7,542.57,482.23,530.81Z"/><path class="cls-53" d="M522.42,545.3s-24.48-7.41-27.24-25.62l-3.89,3S494.78,541.55,522.42,545.3Z"/><path class="cls-9" d="M565.59,537.65c-.25,3.81-27.19-8.67-27.19-13.2S566,531.2,565.59,537.65Z"/></g></g></svg>