<svg width="81" height="111" viewBox="0 0 81 111" fill="none" xmlns="http://www.w3.org/2000/svg">
<path d="M13.2405 88.9001L30.264 83.935V66.6751L46.5783 61.2371C46.5783 61.2371 44.4503 51.0703 34.9928 53.9076C25.5352 56.7448 14.1863 61.4735 14.1863 61.4735L13.2405 88.9001Z" fill="white"/>
<path d="M15.1321 46.3414V26.0079C15.1321 26.0079 33.3378 17.0233 35.4658 16.0775C37.5937 15.3682 40.9038 14.6589 42.086 17.4962C43.2682 20.3334 42.5589 26.9536 42.5589 26.9536L30.9734 32.3916V39.2483L15.1321 46.3414Z" fill="white"/>
<path d="M52.4892 0C53.435 0.709309 58.1637 5.43804 58.1637 10.8761C58.1637 16.787 58.1637 23.6436 47.9969 38.7756L64.0747 44.6865C64.0747 44.6865 72.1136 34.9926 73.0594 26.4809C74.0051 17.9692 69.7493 10.8761 68.5671 10.1668L52.4892 0Z" fill="white"/>
<path d="M0 108.051L18.4421 110.652C18.2057 110.888 50.8342 105.214 55.7994 103.323C58.8731 102.14 68.0942 100.012 75.4238 88.6635C82.7533 77.3145 80.1525 60.764 79.4432 59.1089C78.261 55.0895 75.4238 50.1243 69.7493 47.5235C64.0747 44.6863 64.0747 44.6863 64.0747 44.6863L47.9969 38.7754C47.9969 38.7754 56.2723 41.8491 58.8731 43.5041C61.4739 45.1592 64.784 50.5972 64.5476 62.419C64.3111 70.9307 61.4739 83.9347 52.9621 91.9736C47.9969 96.4659 42.5588 99.3031 30.2641 101.904C17.7328 104.268 0 108.051 0 108.051Z" fill="white"/>
</svg>
