<?xml version="1.0" encoding="utf-8"?>
<!-- Generator: Adobe Illustrator 25.0.0, SVG Export Plug-In . SVG Version: 6.00 Build 0)  -->
<svg version="1.1" id="Capa_1" xmlns="http://www.w3.org/2000/svg" xmlns:xlink="http://www.w3.org/1999/xlink" x="0px" y="0px"
	 viewBox="0 0 100 100" style="enable-background:new 0 0 100 100;" xml:space="preserve">
<style type="text/css">
	.st0{fill:#C6A57D;}
	.st1{fill:#39566D;}
</style>
<g>
	<g>
		<g>
			<g>
				<g>
					<g>
						<path class="st0" d="M52.72,51.83c-0.19,0.02-0.36-0.06-0.47-0.21c-0.1-0.17-0.08-0.37,0.03-0.53
							c0.02-0.02,1.91-2.47,1.38-5.53c-0.42-2.33-2.11-4.42-5.05-6.23c-2.39-1.48-3.75-3.38-4.05-5.66
							c-0.65-4.95,3.94-9.86,4.14-10.06c0.16-0.17,0.44-0.2,0.62-0.04c0.19,0.15,0.22,0.43,0.09,0.63
							c-0.02,0.02-1.69,2.48-1.05,5.07c0.4,1.63,1.62,2.98,3.66,4.04c4.11,2.14,4.88,7.82,4.29,12.04
							c-0.38,2.73-1.54,6.07-3.57,6.49C52.73,51.82,52.72,51.83,52.72,51.83L52.72,51.83z"/>
						<path class="st0" d="M57.96,43.03c-0.1,0.02-0.2,0-0.3-0.05c-0.2-0.11-0.29-0.32-0.26-0.52c0.87-4.35,0.54-7.18-3.61-9.71
							c-4.91-2.98-3.05-7.76-3.04-7.81c0.07-0.18,0.27-0.29,0.48-0.25c0.21,0.03,0.38,0.2,0.42,0.39c0.34,1.73,0.74,2.55,3.35,3.91
							c2.89,1.51,4.79,3.22,5.26,7.11c0.5,3.96-1.94,6.69-2.04,6.79C58.15,42.97,58.06,43.01,57.96,43.03L57.96,43.03z"/>
						<path class="st0" d="M51.31,48.8c-0.06,0.01-0.12,0-0.19-0.02c-0.12-0.05-0.21-0.16-0.22-0.27c-0.13-2.35-0.72-3.85-3.43-5.07
							c-3.2-1.43-2.84-4.05-2.84-4.08c0.02-0.1,0.11-0.16,0.23-0.15c0.13,0.01,0.25,0.08,0.3,0.19c0.43,0.91,0.77,1.35,2.45,1.99
							c1.85,0.7,3.16,1.55,3.99,3.61c0.85,2.11-0.14,3.64-0.18,3.71C51.4,48.75,51.35,48.79,51.31,48.8L51.31,48.8z"/>
					</g>
				</g>
				<g>
					<g>
						<path class="st0" d="M52.72,51.83c-0.19,0.02-0.36-0.06-0.47-0.21c-0.1-0.17-0.08-0.37,0.03-0.53
							c0.02-0.02,1.91-2.47,1.38-5.53c-0.42-2.33-2.11-4.42-5.05-6.23c-2.39-1.48-3.75-3.38-4.05-5.66
							c-0.65-4.95,3.94-9.86,4.14-10.06c0.16-0.17,0.44-0.2,0.62-0.04c0.19,0.15,0.22,0.43,0.09,0.63
							c-0.02,0.02-1.69,2.48-1.05,5.07c0.4,1.63,1.62,2.98,3.66,4.04c4.11,2.14,4.88,7.82,4.29,12.04
							c-0.38,2.73-1.54,6.07-3.57,6.49C52.73,51.82,52.72,51.83,52.72,51.83L52.72,51.83z"/>
						<path class="st0" d="M57.96,43.03c-0.1,0.02-0.2,0-0.3-0.05c-0.2-0.11-0.29-0.32-0.26-0.52c0.87-4.35,0.54-7.18-3.61-9.71
							c-4.91-2.98-3.05-7.76-3.04-7.81c0.07-0.18,0.27-0.29,0.48-0.25c0.21,0.03,0.38,0.2,0.42,0.39c0.34,1.73,0.74,2.55,3.35,3.91
							c2.89,1.51,4.79,3.22,5.26,7.11c0.5,3.96-1.94,6.69-2.04,6.79C58.15,42.97,58.06,43.01,57.96,43.03L57.96,43.03z"/>
						<path class="st0" d="M51.31,48.8c-0.06,0.01-0.12,0-0.19-0.02c-0.12-0.05-0.21-0.16-0.22-0.27c-0.13-2.35-0.72-3.85-3.43-5.07
							c-3.2-1.43-2.84-4.05-2.84-4.08c0.02-0.1,0.11-0.16,0.23-0.15c0.13,0.01,0.25,0.08,0.3,0.19c0.43,0.91,0.77,1.35,2.45,1.99
							c1.85,0.7,3.16,1.55,3.99,3.61c0.85,2.11-0.14,3.64-0.18,3.71C51.4,48.75,51.35,48.79,51.31,48.8L51.31,48.8z"/>
					</g>
				</g>
			</g>
			<g>
				<path class="st1" d="M29,74.28h-7.8l-6.9-11.8h-3.54v11.8H3.68V43.9h12.8c1.8,0,3.35,0.23,4.68,0.68
					c1.32,0.45,2.43,1.1,3.31,1.93c0.88,0.83,1.54,1.82,1.96,2.98c0.43,1.16,0.64,2.42,0.64,3.8c0,1.32-0.18,2.47-0.54,3.43
					c-0.36,0.96-0.82,1.78-1.37,2.45c-0.55,0.68-1.15,1.21-1.8,1.6c-0.65,0.39-1.25,0.68-1.82,0.86L29,74.28z M20.02,53.21
					c0-1.3-0.43-2.3-1.28-3.02c-0.85-0.71-2-1.07-3.45-1.07h-4.54v8.18h4.54c1.45,0,2.6-0.39,3.45-1.17
					C19.6,55.35,20.02,54.38,20.02,53.21z"/>
				<path class="st1" d="M52.67,63.49c0,1.84-0.28,3.47-0.83,4.89c-0.55,1.42-1.32,2.61-2.31,3.58c-0.99,0.97-2.2,1.71-3.63,2.22
					c-1.43,0.51-3.01,0.76-4.74,0.76c-1.76,0-3.35-0.25-4.76-0.76s-2.63-1.25-3.63-2.22c-1.01-0.97-1.78-2.17-2.33-3.58
					c-0.55-1.41-0.82-3.04-0.82-4.89c0-3.84,0.99-6.8,2.97-8.88c1.98-2.08,4.84-3.12,8.58-3.12c3.71,0,6.55,1.05,8.53,3.16
					C51.68,56.75,52.67,59.7,52.67,63.49z M45.96,63.49c0-2.28-0.44-4.04-1.31-5.28c-0.87-1.23-2.03-1.85-3.49-1.85
					c-1.52,0-2.71,0.62-3.56,1.85c-0.85,1.23-1.28,2.99-1.28,5.28c0,2.29,0.43,3.95,1.31,5.01c0.87,1.05,2.05,1.58,3.54,1.58
					c1.46,0,2.62-0.53,3.49-1.58C45.53,67.45,45.96,65.78,45.96,63.49z"/>
				<path class="st1" d="M71.8,68.09c0,0.96-0.21,1.86-0.64,2.69c-0.43,0.83-1.01,1.56-1.75,2.18c-0.74,0.62-1.62,1.11-2.65,1.46
					c-1.02,0.35-2.13,0.53-3.33,0.53c-2.36,0-4.35-0.4-5.98-1.21c-1.62-0.8-2.94-1.99-3.95-3.54l5.06-2.34
					c0.41,0.78,0.96,1.38,1.65,1.79c0.69,0.42,1.45,0.62,2.27,0.62c0.82,0,1.49-0.21,2.01-0.62c0.52-0.42,0.78-0.94,0.78-1.56
					c0-0.57-0.21-1.05-0.61-1.44c-0.41-0.39-1.09-0.77-2.03-1.13c-0.25-0.1-0.52-0.21-0.8-0.31c-0.25-0.08-0.51-0.16-0.78-0.25
					c-0.27-0.09-0.53-0.19-0.78-0.29c-0.5-0.21-0.98-0.42-1.42-0.62c-0.44-0.21-0.87-0.45-1.28-0.74c-0.85-0.55-1.55-1.23-2.1-2.06
					c-0.55-0.83-0.83-1.87-0.83-3.12c0-0.94,0.21-1.8,0.64-2.59c0.43-0.79,1.02-1.49,1.77-2.08c0.76-0.6,1.66-1.06,2.72-1.4
					c1.05-0.34,2.23-0.51,3.52-0.51c1.73,0,3.28,0.27,4.65,0.82c1.37,0.55,2.46,1.25,3.28,2.1l-4.06,3.35
					c-0.79-1.06-1.91-1.6-3.35-1.6c-0.69,0-1.31,0.18-1.84,0.55c-0.54,0.36-0.8,0.82-0.8,1.36c0,0.55,0.18,1.01,0.54,1.38
					c0.36,0.38,1,0.73,1.91,1.07l1.46,0.55c1.1,0.42,2.07,0.84,2.91,1.27c0.83,0.43,1.54,0.91,2.1,1.44
					c0.57,0.53,0.99,1.14,1.28,1.83C71.66,66.34,71.8,67.16,71.8,68.09z"/>
				<path class="st1" d="M86.92,74.32c-0.6,0.18-1.19,0.32-1.77,0.41c-0.58,0.09-1.32,0.14-2.2,0.14c-1.04,0-2.01-0.12-2.91-0.35
					s-1.69-0.6-2.36-1.11c-0.68-0.51-1.21-1.16-1.61-1.97c-0.39-0.8-0.59-1.78-0.59-2.92V56.87h-3.07V52.2h3.07v-4.01l6.61-3.16
					l0.05,7.17h4.54v4.67h-4.54v10.48c0,0.99,0.24,1.66,0.73,2.03c0.49,0.36,1,0.55,1.54,0.55c0.85,0,1.68-0.17,2.5-0.51V74.32z"/>
				<path class="st1" d="M96.32,49.16h-6.8v-5.22h6.8V49.16z M96.28,74.32h-6.71V52.2h6.71V74.32z"/>
			</g>
		</g>
	</g>
</g>
</svg>
